<svg width="20" height="26" viewBox="0 0 20 26" fill="none" xmlns="http://www.w3.org/2000/svg">
<path d="M18.8635 9.62847C18.8635 4.96342 14.8951 1.18164 9.99987 1.18164C5.10462 1.18164 1.13623 4.96342 1.13623 9.62847V10.1372C1.13623 12.0038 1.74823 13.8237 2.88667 15.3426L9.98236 24.8094C9.99094 24.8209 10.0088 24.8209 10.0174 24.8094L17.1131 15.3426C18.2515 13.8237 18.8635 12.0038 18.8635 10.1372V9.62847Z" stroke="#2D383F" stroke-linecap="round" stroke-linejoin="round"/>
<path d="M8.2674 6.25049C9.36221 5.74805 10.6375 5.74805 11.7323 6.25049C12.8271 6.75293 13.6223 7.70313 13.8927 8.8321C14.1631 9.96107 13.8793 11.1459 13.1217 12.0513C12.364 12.9567 11.215 13.484 9.99987 13.484C8.78472 13.484 7.6357 12.9567 6.87807 12.0513C6.12044 11.1459 5.83665 9.96107 6.10705 8.8321C6.37744 7.70313 7.17259 6.75293 8.2674 6.25049Z" stroke="#2D383F" stroke-linecap="round" stroke-linejoin="round"/>
</svg>
