<svg width="42" height="42" id="sprite-adv-safety" viewBox="0 0 42 42" fill="none" xmlns="http://www.w3.org/2000/svg">
<rect x="0.5" y="0.5" width="41" height="41" stroke="#0266C1"/>
<path d="M18.5453 20.9039L20.9999 23.3521L25.2953 19.0677M20.9998 10.0908C18.4675 11.3857 15.6463 12.0742 12.7624 12.0742C12.373 12.0742 11.9848 12.0617 11.5983 12.0368C11.0994 14.313 11.0442 16.6814 11.456 19.0106C12.1931 23.1803 14.3796 26.9575 17.6313 29.6791C18.674 30.5517 19.8047 31.2979 20.9998 31.909C22.1949 31.2979 23.3257 30.5517 24.3683 29.6791C27.6201 26.9575 29.8065 23.1802 30.5437 19.0106C30.9554 16.6814 30.9002 14.313 30.4013 12.0368C30.0148 12.0617 29.6266 12.0742 29.2372 12.0742C26.3533 12.0742 23.5321 11.3857 20.9998 10.0908Z" stroke="#0266C1"/>
</svg>
