<svg width="42" height="42" id="sprite-adv-nature-friend" viewBox="0 0 42 42" fill="none" xmlns="http://www.w3.org/2000/svg">
<rect x="0.5" y="0.5" width="41" height="41" stroke="#0266C1"/>
<path d="M20.662 26.7206C19.9227 23.5975 17.7485 20.9689 14.7549 19.579C13.2806 18.8945 11.6866 18.5471 10.0908 18.5368C10.1842 20.7498 11.0009 22.9041 12.4639 24.6727C14.5203 27.1589 17.6313 28.6146 20.9269 28.6358C20.8999 27.9962 20.8123 27.3552 20.662 26.7206ZM20.662 26.7206C20.0551 24.1567 18.4811 21.9262 16.2807 20.4406C16.3179 20.2191 16.3625 19.998 16.4146 19.7777C17.0402 17.1353 18.6928 14.847 20.9999 13.3633C23.3069 14.847 24.9595 17.1353 25.5851 19.7777C25.6372 19.998 25.6819 20.2191 25.719 20.4406C23.5186 21.9262 21.9447 24.1567 21.3378 26.7206M20.662 26.7206C20.8122 27.355 20.8998 27.9958 20.9268 28.6352C20.9724 28.6357 21.0181 28.636 21.0638 28.636C21.9876 28.636 22.8975 28.5232 23.7742 28.3066C23.7792 28.3 23.7841 28.2934 23.7891 28.2868C22.9111 28.5105 21.9994 28.6298 21.0729 28.6358M21.3378 26.7206C22.0771 23.5975 24.2513 20.9689 27.2449 19.579C28.7192 18.8945 30.3132 18.5471 31.909 18.5368C31.8157 20.7498 30.9989 22.9041 29.536 24.6727C27.4795 27.1589 24.3685 28.6146 21.0729 28.6358M21.3378 26.7206C21.1876 27.3552 21.0999 27.9962 21.0729 28.6358" stroke="#0266C1" stroke-linecap="round" stroke-linejoin="round"/>
</svg>
