<svg width="42" height="42" id="sprite-adv-equipment" viewBox="0 0 42 42" fill="none" xmlns="http://www.w3.org/2000/svg">
<rect x="0.5" y="0.5" width="41" height="41" stroke="#0266C1"/>
<path d="M31.5984 24.538C32.2763 22.2529 31.7185 19.6592 31.1258 17.8619C31.1219 17.7924 31.102 17.725 31.0677 17.6659C30.8663 17.0821 30.6803 16.6026 30.5215 16.2565C30.8139 16.1312 31.0067 15.8279 31.0096 15.4892V12.0156C31.0096 11.555 30.6627 11.1816 30.2348 11.1816H20.7171C20.5032 11.1812 20.3295 11.3676 20.3291 11.5979C20.3291 11.6065 20.3293 11.6151 20.3298 11.6237C20.4615 14.1256 20.291 15.8228 19.7991 17.0196C19.7893 17.0315 19.7802 17.044 19.772 17.0571C19.7705 17.0779 19.7705 17.0989 19.772 17.1197C19.5842 17.5553 19.3302 17.9541 19.0205 18.2998L18.9856 18.3248C18.9856 18.3248 18.9856 18.3248 18.9856 18.354C18.5314 18.8202 18.0077 19.2008 17.4361 19.4799C16.4403 19.9555 15.4183 20.3649 14.3759 20.7058L14.1783 20.7767C10.5564 22.0694 10.0838 24.4129 10.0915 25.5889C10.0906 25.6055 10.0906 25.6222 10.0915 25.6389V28.6163C10.0921 28.7612 10.1625 28.8953 10.2775 28.9707C11.1651 29.5521 12.1233 29.9983 13.1247 30.2968C13.3306 30.3591 13.5445 30.2299 13.6024 30.0082C13.6133 29.9664 13.6181 29.9231 13.6166 29.8798V29.7839H14.1861V30.2008C14.1836 30.4074 14.322 30.5848 14.5115 30.6178C14.8485 30.6762 15.1855 30.7221 15.5147 30.7513C15.6226 30.761 15.7294 30.7217 15.8091 30.6429C15.8888 30.5633 15.9338 30.4513 15.9331 30.3343V29.8089H16.5025V30.401C16.5025 30.6313 16.676 30.818 16.8899 30.818C17.2153 30.818 17.5407 30.818 17.8893 30.768C18.0911 30.7506 18.2463 30.5689 18.2457 30.351V29.8089H18.8151V30.1758C18.8124 30.4061 18.9836 30.5952 19.1975 30.5982C19.2199 30.5985 19.2423 30.5967 19.2645 30.5928C19.9756 30.4756 20.6765 30.2957 21.3602 30.0549L21.4222 30.0257C24.1337 28.3577 25.8537 29.7296 25.9234 29.788C25.991 29.8445 26.0741 29.8753 26.1597 29.8756H26.64C26.854 29.8756 27.0274 29.6889 27.0274 29.4586V28.7539H27.5814V29.4503C27.5814 29.6805 27.7548 29.8673 27.9687 29.8673H29.2161C29.43 29.8673 29.6034 29.6805 29.6034 29.4503V28.7539H30.1767V29.4503C30.1767 29.6805 30.3502 29.8673 30.5641 29.8673H31.5209C31.7348 29.8673 31.9083 29.6805 31.9083 29.4503V24.955C31.9121 24.7537 31.7817 24.5783 31.5984 24.538ZM22.4061 12.024H30.2155V15.4767H22.4061V12.024ZM17.5368 20.3389L17.5407 20.3639C17.8582 20.6414 18.1513 20.9499 18.4162 21.2855C18.3459 21.4112 18.3097 21.5557 18.3116 21.7025C18.3089 22.1423 18.638 22.5012 19.0466 22.5041C19.4552 22.507 19.7886 22.1527 19.7913 21.7128C19.7938 21.2984 19.5007 20.9512 19.1173 20.9143C18.8723 20.5547 18.5931 20.2235 18.2844 19.9261C18.6306 19.714 18.9563 19.4653 19.2567 19.1838C19.6324 19.5632 19.982 19.9716 20.3026 20.4056C20.1679 20.8209 20.3714 21.2751 20.7571 21.4202C21.1429 21.5653 21.5648 21.3462 21.6996 20.931C21.8344 20.5157 21.6309 20.0615 21.2452 19.9164C21.1651 19.8863 21.0809 19.8712 20.996 19.8718H20.9031C20.5633 19.4114 20.1931 18.978 19.7952 18.575C19.9798 18.3303 20.1432 18.0679 20.2833 17.791C20.883 18.1271 21.4626 18.5031 22.0187 18.9169C22.0149 19.3614 22.3465 19.725 22.7594 19.7291C23.1723 19.7332 23.5101 19.3762 23.5139 18.9318C23.5177 18.4873 23.1861 18.1237 22.7732 18.1196C22.6553 18.1184 22.5387 18.1473 22.4332 18.2039C21.8478 17.7773 21.2385 17.3901 20.6087 17.0446C21.0309 15.8353 21.213 14.2299 21.1277 12.0407H21.6352V15.4934C21.6352 15.954 21.982 16.3274 22.4099 16.3274H29.6693C29.77 16.5484 29.9404 16.932 30.1264 17.4324H29.9676C27.6143 17.4507 25.7204 19.5191 25.7374 22.0524C25.747 23.4919 26.3839 24.843 27.4574 25.7015C24.3236 26.5897 19.6093 27.6447 15.6426 27.3694C16.3747 24.2211 15.4992 22.2821 14.9298 21.4314C15.8166 21.1183 16.6868 20.7536 17.5368 20.3389ZM14.1512 21.6691C14.5696 22.1987 15.6619 23.9793 14.8601 27.2527C13.4643 27.1346 12.1086 26.6936 10.8857 25.96C10.8718 25.8647 10.8627 25.7686 10.8585 25.6723V25.6431C10.8276 24.7549 11.1374 22.8325 14.1512 21.6691ZM30.9515 29.0333V28.3369C30.9515 28.1066 30.778 27.9199 30.5641 27.9199H29.2199C29.006 27.9199 28.8326 28.1066 28.8326 28.3369V29.0333H28.3561V28.3369C28.3561 28.1066 28.1826 27.9199 27.9687 27.9199H26.6323C26.4184 27.9199 26.2449 28.1066 26.2449 28.3369V29.0166C25.7181 28.6621 23.7929 27.6322 21.0619 29.2751C20.576 29.4478 20.0805 29.587 19.5783 29.6921V29.4044C19.5783 29.1741 19.4048 28.9874 19.1909 28.9874H17.8545C17.6405 28.9874 17.4671 29.1741 17.4671 29.4044V29.9757H17.2695V29.3919C17.2695 29.1616 17.0961 28.9749 16.8822 28.9749H15.538C15.3241 28.9749 15.1506 29.1616 15.1506 29.3919V29.8881L14.9531 29.8589V29.3919C14.9531 29.1616 14.7796 28.9749 14.5657 28.9749H13.2215C13.0245 28.9734 12.8578 29.1313 12.8341 29.3418C12.1466 29.0982 11.4845 28.7781 10.8585 28.3869V26.8941C12.5475 27.8573 14.7323 28.2201 17.0565 28.2201C23.2312 28.2201 30.2968 25.6764 31.1297 25.372L31.1335 29.0333H30.9515ZM30.7617 24.6339C30.4324 24.7507 29.6228 25.0509 28.5033 25.372C26.7701 24.4691 26.0451 22.2246 26.8839 20.359C27.4577 19.0827 28.6506 18.2635 29.9676 18.2414C30.1203 18.2391 30.273 18.2474 30.4247 18.2664L30.4285 18.2789C30.998 20.047 31.5093 22.5698 30.7617 24.6339Z" fill="#0266C1"/>
<path d="M23.8978 12.5286C23.2752 12.5286 22.7705 13.0719 22.7705 13.742C22.7726 14.4113 23.2761 14.9532 23.8978 14.9555C24.5203 14.9555 25.025 14.4122 25.025 13.742C25.025 13.0719 24.5204 12.5286 23.8978 12.5286ZM23.8978 14.1215C23.7031 14.1215 23.5453 13.9516 23.5453 13.742C23.5453 13.5324 23.7031 13.3626 23.8978 13.3626C24.0925 13.3626 24.2503 13.5324 24.2503 13.742C24.2503 13.9516 24.0925 14.1215 23.8978 14.1215Z" fill="#0266C1"/>
</svg>
