<svg width="42" height="42" viewBox="0 0 42 42" id="sprite-adv-routs" fill="none" xmlns="http://www.w3.org/2000/svg">
<rect x="0.5" y="0.5" width="41" height="41" stroke="#0266C1"/>
<g clip-path="url(#clip0_12508_693)">
<path d="M28.7921 18.5644H22.948C21.119 18.5644 19.6363 20.058 19.6363 21.9005C19.6363 23.743 21.119 25.2367 22.948 25.2367H25.4804C27.3094 25.2367 28.7921 26.7303 28.7921 28.5728C28.7921 30.4154 27.3094 31.909 25.4804 31.909H13.2077M16.3246 26.3783C16.3246 24.6442 14.9291 23.2384 13.2077 23.2384C11.4863 23.2384 10.0908 24.6442 10.0908 26.3783V26.4963C10.0908 27.1849 10.3074 27.8557 10.7094 28.4126L13.2015 31.8646C13.2046 31.8688 13.2108 31.8688 13.2139 31.8646L15.706 28.4126C16.108 27.8557 16.3246 27.1849 16.3246 26.4963V26.3783ZM13.8102 25.0858L13.8289 25.0947C14.2062 25.2744 14.4812 25.618 14.5757 26.0275C14.6712 26.4415 14.5685 26.8804 14.3026 27.2104C14.0395 27.5367 13.6416 27.7298 13.2243 27.7298H13.1911C12.7738 27.7298 12.3759 27.5367 12.1128 27.2104C11.8469 26.8804 11.7442 26.4415 11.8397 26.0275C11.9342 25.618 12.2092 25.2744 12.5865 25.0947L12.6052 25.0858C12.9866 24.904 13.4288 24.904 13.8102 25.0858ZM31.909 13.2528C31.909 11.5187 30.5135 10.0908 28.7921 10.0908C27.0707 10.0908 25.6752 11.5187 25.6752 13.2528C25.6752 13.9345 25.8934 14.6054 26.2974 15.1523L28.786 18.521C28.789 18.5251 28.7952 18.5251 28.7983 18.521L31.2868 15.1523C31.6908 14.6054 31.909 13.9345 31.909 13.2528ZM29.3862 11.8923L29.4285 11.912C29.796 12.0831 30.0652 12.4147 30.1589 12.8114C30.255 13.2184 30.1553 13.6472 29.89 13.9689L29.8767 13.985C29.618 14.2987 29.2341 14.4802 28.8293 14.4802H28.755C28.3501 14.4802 27.9663 14.2987 27.7076 13.985L27.6943 13.9689C27.4289 13.6472 27.3293 13.2184 27.4253 12.8114C27.519 12.4147 27.7882 12.0831 28.1557 11.912L28.198 11.8923C28.5749 11.7168 29.0093 11.7168 29.3862 11.8923Z" stroke="#0266C1" stroke-linecap="round"/>
</g>
<defs>
<clipPath id="clip0_12508_693">
<rect width="24" height="24" fill="white" transform="translate(9 9)"/>
</clipPath>
</defs>
</svg>
