<svg width="24" height="24" viewBox="0 0 24 24" fill="none" xmlns="http://www.w3.org/2000/svg">
<path d="M9.54529 11.9039L11.9999 14.3521L16.2953 10.0677M11.9998 1.09082C9.46749 2.38571 6.64626 3.07423 3.76239 3.07423C3.37305 3.07423 2.98484 3.06168 2.59834 3.03679C2.09942 5.31296 2.04422 7.68139 2.45598 10.0106C3.1931 14.1803 5.37955 17.9575 8.63134 20.6791C9.67395 21.5517 10.8047 22.2979 11.9998 22.909C13.1949 22.2979 14.3257 21.5517 15.3683 20.6791C18.6201 17.9575 20.8065 14.1802 21.5437 10.0106C21.9554 7.68139 21.9002 5.31296 21.4013 3.03678C21.0148 3.06168 20.6266 3.07423 20.2372 3.07423C17.3533 3.07423 14.5321 2.38571 11.9998 1.09082Z" stroke="#0266C1"/>
</svg>
