<svg width="24" height="18" viewBox="0 0 24 18" fill="none" xmlns="http://www.w3.org/2000/svg">
<path d="M11.662 14.7206C10.9227 11.5975 8.74849 8.9689 5.75492 7.57899C4.28063 6.89447 2.68662 6.54707 1.09082 6.53679C1.18415 8.74985 2.00095 10.9041 3.46387 12.6727C5.5203 15.1589 8.63129 16.6146 11.9269 16.6358C11.8999 15.9962 11.8123 15.3552 11.662 14.7206ZM11.662 14.7206C11.0551 12.1567 9.4811 9.92621 7.28073 8.44061C7.31788 8.21908 7.36249 7.998 7.41465 7.77769C8.04019 5.13531 9.69285 2.84696 11.9999 1.36328C14.3069 2.84696 15.9595 5.13532 16.5851 7.77769C16.6372 7.99799 16.6819 8.21906 16.719 8.44058C14.5186 9.92618 12.9447 12.1567 12.3378 14.7206M11.662 14.7206C11.8122 15.355 11.8998 15.9958 11.9268 16.6352C11.9724 16.6357 12.0181 16.636 12.0638 16.636C12.9876 16.636 13.8975 16.5232 14.7742 16.3066C14.7792 16.3 14.7841 16.2934 14.7891 16.2868C13.9111 16.5105 12.9994 16.6298 12.0729 16.6358M12.3378 14.7206C13.0771 11.5975 15.2513 8.9689 18.2449 7.57899C19.7192 6.89447 21.3132 6.54707 22.909 6.53679C22.8157 8.74985 21.9989 10.9041 20.536 12.6727C18.4795 15.1589 15.3685 16.6146 12.0729 16.6358M12.3378 14.7206C12.1876 15.3552 12.0999 15.9962 12.0729 16.6358" stroke="#0266C1" stroke-linecap="round" stroke-linejoin="round"/>
</svg>
