<svg width="26" height="25" fill="none" xmlns="http://www.w3.org/2000/svg"><path d="m25.259 18.083-4.907-5.613h2.37a.501.501 0 0 0 .397-.807l-3.94-5.178h2.005a.501.501 0 0 0 .376-.832L16.738.17a.501.501 0 0 0-.752 0L11.16 5.648a.501.501 0 0 0 .376.837h2.03l-1.214 1.584-3.247-3.694a.501.501 0 0 0-.752 0L4.228 9.06a.501.501 0 0 0 .376.832h1.588L2.894 14.21a.501.501 0 0 0 .396.797h1.855L1.07 19.692a.501.501 0 0 0 .376.827h5.543v3.509c0 .537.436.972.973.972H9.49a.972.972 0 0 0 .977-.967v-3.514h4.16v3.509c0 .537.435.972.972.972h1.53a.972.972 0 0 0 .971-.972v-5.113h6.782a.501.501 0 0 0 .376-.832ZM9.465 23.998l-1.473.03-.03-3.509h1.503v3.479Zm5.163-4.481H2.548l4.1-4.677a.501.501 0 0 0-.385-.837H4.308l3.298-4.315a.501.501 0 0 0-.396-.807H5.706l3.008-3.423L11.72 8.87l-2.115 2.797a.501.501 0 0 0 .396.807h2.375l-4.906 5.613a.501.501 0 0 0 .376.832h6.781v.597Zm2.471 4.47-1.469.04-.03-5.112h1.504l-.005 5.073Zm.03-6.074H8.95l4.907-5.614a.501.501 0 0 0-.376-.832h-2.46l3.959-5.182a.501.501 0 0 0-.396-.802h-1.92l3.72-4.22 3.698 4.22h-1.934a.501.501 0 0 0-.396.807l3.934 5.177h-2.44a.501.501 0 0 0-.377.832l4.907 5.614H17.13Z" fill="#2D383F"/></svg>