<svg width="20" height="20" fill="none" xmlns="http://www.w3.org/2000/svg"><path d="M19.527 11.382a.7.7 0 0 0-.588.128 7.495 7.495 0 0 1-2.274 1.334 7.1 7.1 0 0 1-2.582.462A7.503 7.503 0 0 1 8.767 11.1a7.556 7.556 0 0 1-2.198-5.335c0-.872.153-1.718.409-2.488.28-.82.69-1.565 1.227-2.206a.656.656 0 0 0-.103-.923.701.701 0 0 0-.588-.128C5.342.61 3.45 1.918 2.096 3.662A10.18 10.18 0 0 0 0 9.843c0 2.796 1.125 5.335 2.965 7.182A10.066 10.066 0 0 0 10.12 20c2.352 0 4.524-.82 6.263-2.18a10.118 10.118 0 0 0 3.578-5.617c.128-.385-.077-.744-.435-.821Zm-3.91 5.36a8.715 8.715 0 0 1-5.444 1.899c-2.429 0-4.627-1-6.211-2.59A8.817 8.817 0 0 1 1.38 9.816c0-2.026.665-3.872 1.815-5.36a8.795 8.795 0 0 1 2.94-2.462c-.129.282-.256.564-.359.872-.332.923-.485 1.898-.485 2.924 0 2.436.997 4.668 2.581 6.258a8.816 8.816 0 0 0 6.237 2.59 8.53 8.53 0 0 0 3.041-.538c.333-.128.665-.257.972-.41a9.324 9.324 0 0 1-2.505 3.052Z" fill="#2D383F"/></svg>