<svg width="26" height="21" fill="none" xmlns="http://www.w3.org/2000/svg"><path d="M24.978 14.266c.776-2.432.137-5.193-.542-7.106a.444.444 0 0 0-.067-.209 16.6 16.6 0 0 0-.625-1.5.888.888 0 0 0 .559-.817V.937a.888.888 0 0 0-.888-.888H12.51a.444.444 0 0 0-.444.47c.15 2.664-.045 4.47-.609 5.744a.387.387 0 0 0-.03.04.435.435 0 0 0 0 .067 4.596 4.596 0 0 1-.862 1.256l-.04.027v.03c-.52.497-1.12.902-1.775 1.2a30.513 30.513 0 0 1-3.507 1.304l-.226.076C.867 11.639.325 14.133.334 15.385a.426.426 0 0 0 0 .053v3.17c.001.153.082.296.213.377a12.9 12.9 0 0 0 3.263 1.411.444.444 0 0 0 .563-.444v-.102h.653v.444a.444.444 0 0 0 .373.444c.386.062.772.11 1.15.142a.444.444 0 0 0 .479-.444v-.56h.652v.63c0 .246.199.445.444.445.373 0 .746 0 1.145-.053a.444.444 0 0 0 .409-.444v-.577h.652v.39a.444.444 0 0 0 .515.444 15.04 15.04 0 0 0 2.401-.572l.071-.031c3.107-1.776 5.078-.316 5.158-.253.077.06.173.092.27.093h.551a.444.444 0 0 0 .444-.444v-.75h.635v.74c0 .246.198.445.444.445h1.429a.444.444 0 0 0 .444-.444v-.741h.657v.74c0 .246.198.445.444.445h1.096a.444.444 0 0 0 .444-.444V14.71a.444.444 0 0 0-.355-.444ZM14.445.946h8.948V4.62h-8.948V.946Zm-5.58 8.85.005.027c.364.296.7.624 1.003.981a.839.839 0 0 0-.12.444.848.848 0 1 0 .923-.839c-.28-.383-.6-.735-.954-1.052.397-.226.77-.49 1.114-.79.43.404.831.839 1.198 1.3a.848.848 0 1 0 .795-.568h-.107c-.389-.49-.813-.951-1.269-1.38.212-.26.399-.54.56-.834.687.357 1.35.757 1.988 1.198a.857.857 0 1 0 .475-.759 19.62 19.62 0 0 0-2.09-1.234c.483-1.287.692-2.996.594-5.326h.581v3.675c0 .49.398.888.888.888h8.318c.116.235.31.643.524 1.176h-.182a4.883 4.883 0 0 0-2.876 8.802c-3.591.945-8.993 2.068-13.538 1.775.839-3.351-.164-5.415-.817-6.32a29.533 29.533 0 0 0 2.987-1.163Zm-3.879 1.417c.48.563 1.731 2.459.812 5.943a11.15 11.15 0 0 1-4.554-1.376 2.817 2.817 0 0 1-.03-.306v-.031c-.036-.946.319-2.992 3.772-4.23Zm19.25 7.838v-.741a.444.444 0 0 0-.444-.444h-1.54a.444.444 0 0 0-.444.444v.741h-.546v-.741a.444.444 0 0 0-.443-.444h-1.532a.444.444 0 0 0-.444.444v.723c-.603-.377-2.81-1.473-5.938.275a13.86 13.86 0 0 1-1.7.444v-.306a.444.444 0 0 0-.444-.444H9.229a.444.444 0 0 0-.444.444v.608H8.56v-.621a.444.444 0 0 0-.444-.444h-1.54a.444.444 0 0 0-.444.444v.528l-.226-.031v-.497a.444.444 0 0 0-.444-.444H3.92a.444.444 0 0 0-.444.39c-.788-.259-1.547-.6-2.264-1.016v-1.589c1.935 1.025 4.439 1.412 7.102 1.412 7.075 0 15.171-2.708 16.126-3.032l.004 3.897h-.209Zm-.217-4.683c-.377.125-1.305.444-2.588.786a3.995 3.995 0 0 1 2.202-7.563l.004.013c.653 1.882 1.238 4.567.382 6.764Z" fill="currentColor"/><path d="M16.154 1.483a1.292 1.292 0 1 0 0 2.583 1.292 1.292 0 0 0 0-2.583Zm0 1.696a.404.404 0 1 1 0-.808.404.404 0 0 1 0 .808Z" fill="currentColor"/></svg>
