<svg width="9" height="16" fill="none" xmlns="http://www.w3.org/2000/svg"><path d="M4.5 2.42c.916 0 1.66.767 1.66 1.71 0 .94-.744 1.708-1.66 1.708-.916 0-1.66-.767-1.66-1.708 0-.943.744-1.71 1.66-1.71Zm0 5.838c2.212 0 4.011-1.852 4.011-4.127C8.511 1.851 6.712 0 4.5 0S.492 1.852.492 4.13c0 2.276 1.796 4.128 4.008 4.128Zm1.622 3.37a7.441 7.441 0 0 0 2.328-.995 1.231 1.231 0 0 0 .37-1.667 1.154 1.154 0 0 0-1.622-.381 4.97 4.97 0 0 1-5.399 0 1.15 1.15 0 0 0-1.619.38 1.231 1.231 0 0 0 .37 1.668 7.441 7.441 0 0 0 2.328.994L.635 13.934a1.236 1.236 0 0 0 0 1.71c.232.236.53.355.83.355.301 0 .602-.119.834-.355L4.5 13.377l2.204 2.267c.458.475 1.2.475 1.66 0a1.236 1.236 0 0 0 0-1.71l-2.242-2.307Z" fill="#2D383F"/></svg>