<svg width="22" height="22" fill="none" xmlns="http://www.w3.org/2000/svg"><path d="M19.324 20.044c-.32.631-.98 1.023-1.681.946a18.752 18.752 0 0 1-11.244-5.41 18.878 18.878 0 0 1-5.39-11.288c-.076-.704.314-1.366.943-1.687l2.75-1.407c1.065-.545 2.353.09 2.727 1.23a18.671 18.671 0 0 0 1.297 3.018c.41.762.133 1.74-.652 2.098a1.806 1.806 0 0 0-.527 2.915l3.952 3.968c.887.89 2.385.617 2.904-.528.377-.833 1.398-1.134 2.209-.718a18.507 18.507 0 0 0 2.93 1.198c1.154.36 1.81 1.668 1.26 2.75l-1.478 2.915Z" stroke="#2D383F" stroke-linecap="round" stroke-linejoin="round"/></svg>