<svg width="20" height="18" fill="none" xmlns="http://www.w3.org/2000/svg"><path d="M19.715 12.243c.622-2.094.11-4.472-.433-6.12a.404.404 0 0 0-.053-.18 14.905 14.905 0 0 0-.5-1.291.766.766 0 0 0 .447-.703V.764c0-.422-.318-.764-.71-.764H9.74c-.196 0-.356.17-.356.382v.023C9.507 2.7 9.35 4.255 8.9 5.351a.34.34 0 0 0-.025.035.412.412 0 0 0 0 .057 3.98 3.98 0 0 1-.689 1.082l-.031.023v.027a5.122 5.122 0 0 1-1.42 1.032c-.914.436-1.85.811-2.806 1.124l-.181.065C.427 9.98-.006 12.129 0 13.206v2.776c0 .133.065.256.17.325a9.95 9.95 0 0 0 2.61 1.215c.189.057.385-.061.438-.264a.41.41 0 0 0 .013-.118v-.088h.522v.382a.375.375 0 0 0 .298.383c.31.053.618.095.92.122a.34.34 0 0 0 .27-.1.397.397 0 0 0 .113-.282v-.482h.522v.543c0 .21.16.382.356.382.298 0 .596 0 .916-.046.185-.016.327-.182.326-.382v-.497h.522v.336c-.002.211.155.385.35.387.021 0 .042 0 .062-.004a11.335 11.335 0 0 0 1.921-.494l.057-.026c2.486-1.53 4.062-.272 4.126-.218a.34.34 0 0 0 .217.08h.44c.196 0 .355-.171.355-.382v-.646h.508v.638c0 .211.159.383.355.383h1.143c.197 0 .356-.172.356-.383v-.638h.525v.638c0 .211.16.383.355.383h.877c.196 0 .355-.172.355-.383v-4.12a.377.377 0 0 0-.284-.383ZM11.29.773h7.159v3.164h-7.159V.772ZM6.826 8.393l.003.023c.291.254.56.537.803.845a.765.765 0 0 0-.096.382c-.003.403.299.732.673.735.375.003.68-.322.683-.725.002-.38-.266-.699-.618-.732a5.765 5.765 0 0 0-.763-.906c.317-.195.616-.423.891-.68.344.347.665.721.959 1.12-.124.38.063.796.416.93.354.132.74-.068.864-.45.124-.38-.063-.796-.416-.93a.634.634 0 0 0-.229-.04h-.085c-.311-.422-.65-.82-1.015-1.189.169-.224.319-.465.447-.718.55.308 1.081.652 1.59 1.032-.003.407.301.74.68.744.378.004.688-.323.692-.73.003-.408-.301-.741-.68-.745a.645.645 0 0 0-.311.077A15.484 15.484 0 0 0 9.64 5.374c.387-1.108.554-2.58.476-4.587h.465v3.165c0 .423.318.765.71.765h6.655c.092.203.248.554.419 1.013h-.146c-2.157.017-3.893 1.913-3.877 4.235.008 1.32.592 2.558 1.576 3.345-2.872.814-7.194 1.781-10.83 1.529.671-2.886-.131-4.664-.653-5.443.813-.287 1.61-.622 2.39-1.002Zm-3.104 1.22c.384.485 1.385 2.117.65 5.118a8.465 8.465 0 0 1-3.643-1.185 2.607 2.607 0 0 1-.025-.264v-.027c-.029-.814.255-2.576 3.018-3.642Zm15.4 6.75v-.638c0-.212-.159-.383-.355-.383h-1.232c-.196 0-.355.171-.355.383v.638h-.437v-.638c0-.212-.159-.383-.355-.383h-1.225c-.196 0-.355.171-.355.383v.623c-.483-.325-2.248-1.27-4.751.237-.446.158-.9.286-1.36.382v-.264c0-.21-.16-.382-.355-.382H7.117c-.196 0-.355.171-.355.382v.524H6.58v-.535c0-.211-.159-.383-.355-.383H4.993c-.196 0-.355.172-.355.383v.455l-.181-.027v-.428c0-.211-.159-.383-.355-.383H2.87c-.18 0-.334.144-.355.337a9.241 9.241 0 0 1-1.811-.875v-1.369c1.548.883 3.55 1.216 5.681 1.216 5.66 0 12.137-2.332 12.9-2.611l.004 3.356h-.167Zm-.174-4.033c-.302.107-1.044.383-2.07.677-1.589-.828-2.253-2.885-1.484-4.595.526-1.17 1.62-1.921 2.826-1.942.14-.002.28.006.42.023l.003.012c.522 1.62.99 3.933.305 5.825Z" fill="#0266C1"/><path d="M12.656 1.235c-.57 0-1.033.498-1.033 1.112.002.613.463 1.11 1.033 1.112.571 0 1.034-.498 1.034-1.112 0-.614-.463-1.112-1.034-1.112Zm0 1.46c-.178 0-.323-.156-.323-.348 0-.192.145-.348.323-.348.179 0 .323.156.323.348 0 .192-.144.348-.323.348Z" fill="#0266C1"/></svg>