<svg width="22" height="20" viewBox="0 0 22 20" fill="none" xmlns="http://www.w3.org/2000/svg">
<path d="M21.5984 13.538C22.2763 11.2529 21.7185 8.65918 21.1258 6.86192C21.1219 6.79239 21.102 6.72499 21.0677 6.66594C20.8663 6.08214 20.6803 5.60259 20.5215 5.25649C20.8139 5.13118 21.0067 4.82792 21.0096 4.48921V1.01563C21.0096 0.55501 20.6627 0.181641 20.2348 0.181641H10.7171C10.5032 0.181224 10.3295 0.36757 10.3291 0.597908C10.3291 0.606509 10.3293 0.615109 10.3298 0.623658C10.4615 3.12564 10.291 4.82281 9.79907 6.01959C9.78929 6.03148 9.78023 6.04404 9.77195 6.05712C9.7705 6.07792 9.7705 6.09887 9.77195 6.11967C9.58417 6.55533 9.3302 6.95413 9.02045 7.29977L8.98559 7.32479C8.98559 7.32479 8.98559 7.32479 8.98559 7.35398C8.53144 7.82024 8.00767 8.20085 7.4361 8.47987C6.44027 8.95551 5.41829 9.36495 4.37587 9.70584L4.17831 9.77673C0.556392 11.0694 0.0837992 13.4129 0.0915466 14.5889C0.0905782 14.6055 0.0905782 14.6222 0.0915466 14.6389V17.6163C0.0921277 17.7612 0.162484 17.8953 0.277485 17.9707C1.16515 18.5521 2.12331 18.9983 3.12466 19.2968C3.3306 19.3591 3.54452 19.2299 3.60244 19.0082C3.61333 18.9664 3.61812 18.9231 3.61662 18.8798V18.7839H4.18606V19.2008C4.18359 19.4074 4.32203 19.5848 4.51145 19.6178C4.84846 19.6762 5.18548 19.7221 5.51474 19.7513C5.62263 19.761 5.72939 19.7217 5.80914 19.6429C5.88885 19.5633 5.93383 19.4513 5.9331 19.3343V18.8089H6.50254V19.401C6.50254 19.6313 6.67598 19.818 6.88991 19.818C7.2153 19.818 7.54069 19.818 7.88933 19.768C8.0911 19.7506 8.24634 19.5688 8.24571 19.351V18.8089H8.81514V19.1758C8.81238 19.4061 8.98355 19.5952 9.19748 19.5982C9.2199 19.5985 9.24232 19.5967 9.26449 19.5928C9.97556 19.4756 10.6765 19.2957 11.3602 19.0549L11.4222 19.0257C14.1337 17.3577 15.8537 18.7296 15.9234 18.788C15.991 18.8445 16.0741 18.8753 16.1597 18.8756H16.64C16.854 18.8756 17.0274 18.6889 17.0274 18.4586V17.7539H17.5814V18.4503C17.5814 18.6805 17.7548 18.8673 17.9687 18.8673H19.2161C19.43 18.8673 19.6034 18.6805 19.6034 18.4503V17.7539H20.1767V18.4503C20.1767 18.6805 20.3502 18.8673 20.5641 18.8673H21.5209C21.7348 18.8673 21.9083 18.6805 21.9083 18.4503V13.955C21.9121 13.7537 21.7817 13.5783 21.5984 13.538ZM12.4061 1.02397H20.2155V4.4767H12.4061V1.02397ZM7.53682 9.33888L7.54069 9.3639C7.85824 9.64141 8.15129 9.94994 8.41615 10.2855C8.34589 10.4112 8.30967 10.5557 8.31156 10.7025C8.3089 11.1423 8.63802 11.5012 9.0466 11.5041C9.45523 11.507 9.78861 11.1527 9.79127 10.7128C9.79379 10.2984 9.50069 9.95124 9.11729 9.91434C8.87228 9.55473 8.59313 9.22348 8.28445 8.92606C8.63061 8.71396 8.95629 8.46533 9.25675 8.1838C9.63245 8.56322 9.982 8.97156 10.3026 9.4056C10.1679 9.82088 10.3714 10.2751 10.7571 10.4202C11.1429 10.5653 11.5648 10.3462 11.6996 9.93102C11.8344 9.51574 11.6309 9.06153 11.2452 8.91641C11.1651 8.88629 11.0809 8.87122 10.996 8.87185H10.9031C10.5633 8.41138 10.1931 7.97796 9.79519 7.57499C9.97982 7.33026 10.1432 7.06787 10.2833 6.79104C10.883 7.12708 11.4626 7.50311 12.0187 7.91693C12.0149 8.36139 12.3465 8.72501 12.7594 8.72913C13.1723 8.73325 13.5101 8.37625 13.5139 7.93178C13.5177 7.48731 13.1861 7.12369 12.7732 7.11958C12.6553 7.11838 12.5387 7.14725 12.4332 7.20386C11.8478 6.77727 11.2385 6.39015 10.6087 6.04461C11.0309 4.83532 11.213 3.22989 11.1277 1.04065H11.6352V4.49338C11.6352 4.95401 11.982 5.32738 12.4099 5.32738H19.6693C19.77 5.54839 19.9404 5.93202 20.1264 6.43242H19.9676C17.6143 6.45071 15.7204 8.51912 15.7374 11.0524C15.747 12.4919 16.3839 13.843 17.4574 14.7015C14.3236 15.5897 9.60925 16.6447 5.64257 16.3694C6.37471 13.2211 5.49925 11.2821 4.92981 10.4314C5.81655 10.1183 6.68683 9.75359 7.53682 9.33888ZM4.1512 10.6691C4.56956 11.1987 5.66194 12.9793 4.86009 16.2527C3.46429 16.1346 2.10864 15.6936 0.885657 14.96C0.87176 14.8647 0.862706 14.7686 0.858541 14.6723V14.6431C0.827552 13.7549 1.13745 11.8325 4.1512 10.6691ZM20.9515 18.0333V17.3369C20.9515 17.1066 20.778 16.9199 20.5641 16.9199H19.2199C19.006 16.9199 18.8326 17.1066 18.8326 17.3369V18.0333H18.3561V17.3369C18.3561 17.1066 18.1826 16.9199 17.9687 16.9199H16.6323C16.4184 16.9199 16.2449 17.1066 16.2449 17.3369V18.0166C15.7181 17.6621 13.7929 16.6322 11.0619 18.2751C10.576 18.4478 10.0805 18.587 9.57827 18.6921V18.4044C9.57827 18.1741 9.40482 17.9874 9.19089 17.9874H7.85446C7.64054 17.9874 7.46709 18.1741 7.46709 18.4044V18.9757H7.26953V18.3919C7.26953 18.1616 7.09609 17.9749 6.88216 17.9749H5.53798C5.32406 17.9749 5.15061 18.1616 5.15061 18.3919V18.8881L4.95305 18.8589V18.3919C4.95305 18.1616 4.77961 17.9749 4.56568 17.9749H3.22151C3.02448 17.9734 2.85776 18.1313 2.83413 18.3418C2.1466 18.0982 1.48453 17.7781 0.858541 17.3869V15.8941C2.54748 16.8573 4.73225 17.2201 7.05648 17.2201C13.2312 17.2201 20.2968 14.6764 21.1297 14.372L21.1335 18.0333H20.9515ZM20.7617 13.6339C20.4324 13.7507 19.6228 14.0509 18.5033 14.372C16.7701 13.4691 16.0451 11.2246 16.8839 9.35895C17.4577 8.08273 18.6506 7.26354 19.9676 7.24139C20.1203 7.2391 20.273 7.24744 20.4247 7.26641L20.4285 7.27892C20.998 9.04699 21.5093 11.5698 20.7617 13.6339Z" fill="#0266C1"/>
<path d="M13.8978 1.52858C13.2752 1.52858 12.7705 2.07187 12.7705 2.74204C12.7726 3.41126 13.2761 3.9532 13.8978 3.9555C14.5203 3.9555 15.025 3.4122 15.025 2.74204C15.025 2.07187 14.5204 1.52858 13.8978 1.52858ZM13.8978 3.1215C13.7031 3.1215 13.5453 2.95163 13.5453 2.74204C13.5453 2.53244 13.7031 2.36257 13.8978 2.36257C14.0925 2.36257 14.2503 2.53244 14.2503 2.74204C14.2503 2.95163 14.0925 3.1215 13.8978 3.1215Z" fill="#0266C1"/>
</svg>
