<svg width="25" height="25" fill="none" xmlns="http://www.w3.org/2000/svg"><path d="m23.415 24.188-7.857-18.28a.477.477 0 0 0-.877 0l-4.742 11.01-2.93-6.76a.477.477 0 0 0-.877 0l-2.753 6.36-3.34 7.666a.477.477 0 0 0 .44.667h22.498a.477.477 0 0 0 .438-.663Zm-8.3-16.892 3.096 7.199h-1.088l-1.965-2.17a.477.477 0 0 0-.754.061l-.735 1.136h-1.23l2.676-6.226ZM6.57 11.532l2.447 5.658H7.682a.477.477 0 0 0-.4.22l-.478.758-1.23-1.736a.477.477 0 0 0-.391-.206h-.635l2.023-4.694ZM1.228 23.897l2.905-6.716h.801l1.489 2.122a.477.477 0 0 0 .391.206.477.477 0 0 0 .391-.22l.735-1.135h1.488l2.486 5.724-10.686.02Zm11.73 0-2.5-5.772 1.57-3.65h1.908a.477.477 0 0 0 .401-.219l.53-.816 1.688 1.866c.09.1.219.157.353.157h1.708l3.63 8.449-9.288-.015ZM7.61 2.082a2.252 2.252 0 0 0-4.35.806 2.18 2.18 0 0 0 0 .248 2.252 2.252 0 0 0 .906 4.294l.024.019h3.34a2.684 2.684 0 1 0 .08-5.367Zm-.052 4.427h-3.34a1.3 1.3 0 1 1-.266-2.586.477.477 0 0 0 .357-.62 1.298 1.298 0 1 1 2.505-.644c.044.25.277.423.53.391.071-.004.143-.004.214 0a1.73 1.73 0 0 1 0 3.459ZM23.697 2.64a2.184 2.184 0 0 0 0-.248 2.252 2.252 0 0 0-4.343-.825 2.684 2.684 0 0 0 .097 5.366h3.34a2.252 2.252 0 0 0 .906-4.293Zm.359 2.308a1.298 1.298 0 0 1-1.251 1.027h-3.34a1.73 1.73 0 1 1 0-3.46c.072-.004.143-.004.215 0a.477.477 0 0 0 .515-.371 1.297 1.297 0 1 1 2.505.644.477.477 0 0 0 .357.62c.701.15 1.148.839.999 1.54Z" fill="#2D383F"/></svg>