<svg width="16" height="20" fill="none" xmlns="http://www.w3.org/2000/svg"><path fill-rule="evenodd" clip-rule="evenodd" d="M8 0c4.142 0 7.5 3.2 7.5 7.147v.43c0 1.58-.518 3.12-1.481 4.405l-6.004 8.01a.019.019 0 0 1-.03 0l-6.004-8.01A7.338 7.338 0 0 1 .5 7.578v-.43C.5 3.2 3.858 0 8 0ZM6.667 4.764c-.842.384-1.453 1.11-1.661 1.972-.208.862.01 1.767.593 2.459A3.14 3.14 0 0 0 8 10.289a3.14 3.14 0 0 0 2.401-1.094 2.788 2.788 0 0 0 .594-2.459c-.208-.862-.82-1.588-1.662-1.972a3.23 3.23 0 0 0-2.666 0Z" fill="#0266C1"/></svg>