<svg width="22" height="24" viewBox="0 0 22 24" fill="none" xmlns="http://www.w3.org/2000/svg">
<path d="M8.54529 11.9039L10.9999 14.3521L15.2953 10.0677M10.9998 1.09082C8.46749 2.38571 5.64626 3.07423 2.76239 3.07423C2.37305 3.07423 1.98484 3.06168 1.59834 3.03679C1.09942 5.31296 1.04422 7.68139 1.45598 10.0106C2.1931 14.1803 4.37955 17.9575 7.63134 20.6791C8.67395 21.5517 9.80471 22.2979 10.9998 22.909C12.1949 22.2979 13.3257 21.5517 14.3683 20.6791C17.6201 17.9575 19.8065 14.1802 20.5437 10.0106C20.9554 7.68139 20.9002 5.31296 20.4013 3.03678C20.0148 3.06168 19.6266 3.07423 19.2372 3.07423C16.3533 3.07423 13.5321 2.38571 10.9998 1.09082Z" stroke="#0266C1"/>
</svg>
