<svg width="22" height="22" fill="none" xmlns="http://www.w3.org/2000/svg"><path d="M18.143 8.767h-5.357c-1.677 0-3.036 1.37-3.036 3.059 0 1.688 1.36 3.058 3.036 3.058h2.321c1.677 0 3.036 1.369 3.036 3.058 0 1.689-1.36 3.058-3.036 3.058H3.857m2.857-5.07c0-1.59-1.279-2.878-2.857-2.878A2.868 2.868 0 0 0 1 15.93v.108c0 .631.198 1.247.567 1.757l2.284 3.164a.007.007 0 0 0 .012 0l2.284-3.164c.369-.51.567-1.126.567-1.757v-.108ZM4.41 14.745l.018.009c.345.164.598.48.684.855a1.277 1.277 0 0 1-1.239 1.56h-.03a1.275 1.275 0 0 1-1.239-1.56 1.26 1.26 0 0 1 .685-.855l.017-.009c.35-.166.755-.166 1.104 0ZM21 3.898C21 2.308 19.72 1 18.143 1c-1.578 0-2.857 1.309-2.857 2.898 0 .625.2 1.24.57 1.742l2.281 3.088a.007.007 0 0 0 .011 0L20.43 5.64A2.94 2.94 0 0 0 21 3.898Zm-2.313-1.247.04.018a1.225 1.225 0 0 1 .423 1.885l-.013.016a1.245 1.245 0 0 1-.96.454h-.068c-.371 0-.723-.167-.96-.454l-.012-.015a1.225 1.225 0 0 1 .422-1.886l.04-.018a1.29 1.29 0 0 1 1.088 0Z" stroke="currentColor" stroke-linecap="round"/></svg>
