<svg width="20" height="20" fill="none" xmlns="http://www.w3.org/2000/svg"><path d="M13.545 6.455c-.9-.9-2.17-1.481-3.545-1.481a4.934 4.934 0 0 0-3.545 1.481c-.9.9-1.481 2.17-1.481 3.545 0 1.376.582 2.646 1.481 3.545.9.9 2.17 1.482 3.545 1.482a4.934 4.934 0 0 0 3.545-1.482c.9-.9 1.482-2.17 1.482-3.545a4.934 4.934 0 0 0-1.482-3.545Zm-.952 6.138A3.66 3.66 0 0 1 10 13.65a3.66 3.66 0 0 1-2.593-1.058A3.66 3.66 0 0 1 6.35 10a3.66 3.66 0 0 1 1.058-2.593A3.66 3.66 0 0 1 10 6.35a3.66 3.66 0 0 1 2.593 1.058A3.66 3.66 0 0 1 13.65 10a3.66 3.66 0 0 1-1.058 2.593ZM19.312 9.312h-2.037a.7.7 0 0 0-.688.688.7.7 0 0 0 .688.688h2.037A.7.7 0 0 0 20 10a.7.7 0 0 0-.688-.688ZM10 16.587a.7.7 0 0 0-.688.688v2.037A.7.7 0 0 0 10 20a.7.7 0 0 0 .688-.688v-2.037a.7.7 0 0 0-.688-.688ZM17.064 16.111l-1.456-1.455c-.238-.264-.687-.264-.952 0a.67.67 0 0 0 0 .952l1.455 1.455a.67.67 0 0 0 .953 0 .67.67 0 0 0 0-.952ZM10 0a.7.7 0 0 0-.688.688v2.037a.7.7 0 0 0 .688.688.7.7 0 0 0 .688-.688V.688A.7.7 0 0 0 10 0ZM17.09 2.937a.67.67 0 0 0-.952 0l-1.456 1.455a.67.67 0 0 0 0 .952c.239.264.688.264.953 0l1.455-1.455a.67.67 0 0 0 0-.952ZM2.725 9.312H.688A.7.7 0 0 0 0 10c0 .37.291.688.688.688h2.037A.7.7 0 0 0 3.413 10a.7.7 0 0 0-.688-.688ZM5.317 14.656c-.238-.264-.687-.264-.952 0L2.91 16.111a.67.67 0 0 0 0 .952.67.67 0 0 0 .952 0l1.455-1.455a.67.67 0 0 0 0-.952ZM5.317 4.392 3.862 2.937a.67.67 0 0 0-.952 0 .67.67 0 0 0 0 .952l1.455 1.455a.67.67 0 0 0 .952 0 .67.67 0 0 0 0-.952Z" fill="#2D383F"/></svg>