<svg width="25" height="25" fill="none" xmlns="http://www.w3.org/2000/svg"><path d="M24.17 22.28V6.701a.463.463 0 0 0-.602-.463v.023l-2.084.653a6.253 6.253 0 0 0 .385-1.82 5.094 5.094 0 0 0-10.189 0 6.02 6.02 0 0 0 .357 1.737L8.59 5.599a.493.493 0 0 0-.12 0h-.037a.463.463 0 0 0-.162.032l-7.146 2.78a.463.463 0 0 0-.296.388v15.598a.463.463 0 0 0 .63.43l6.983-2.704 7.966 2.853c.096.032.2.032.296 0l7.141-2.233a.463.463 0 0 0 .324-.463ZM16.774.926a4.168 4.168 0 0 1 4.168 4.168c0 1.811-2.718 6.813-4.168 9.262-1.449-2.468-4.168-7.474-4.168-9.262A4.168 4.168 0 0 1 16.774.926Zm6.484 21.035-6.233 1.95v-3.534a.463.463 0 0 0-.927 0v3.501l-7.196-2.575V18.34a.463.463 0 0 0-.927 0v2.964l-6.22 2.422v-7.16l2.289-.926a.463.463 0 1 0-.343-.856l-1.945.782V9.12l6.22-2.409V8.1a.463.463 0 0 0 .926 0V6.692l3.552 1.274a64.337 64.337 0 0 0 3.922 7.558.463.463 0 0 0 .792 0 64.587 64.587 0 0 0 3.909-7.512l2.167-.68.014 7.59-2.348.57a.466.466 0 1 0 .111.925.46.46 0 0 0 .111 0l2.126-.518v6.062Z" fill="#2D383F"/><path d="M16.756 2.404a2.69 2.69 0 1 0 0 5.38 2.69 2.69 0 0 0 0-5.38Zm0 4.455a1.77 1.77 0 0 1-1.746-1.765h-.018a1.764 1.764 0 1 1 1.764 1.765ZM10.698 13.967v.014l-2.241-.968a.464.464 0 0 0-.357 0l-1.894.765a.464.464 0 1 0 .348.861l1.713-.69 2.061.87a.464.464 0 0 0 .185.038.463.463 0 0 0 .185-.89ZM18.27 16.616a.463.463 0 0 0-.523-.32l.005-.036-1.149.278-1.945-.843a.465.465 0 0 0-.37.852l2.084.926a.465.465 0 0 0 .185.037h.11l1.298-.315a.463.463 0 0 0 .305-.579Z" fill="#2D383F"/></svg>