<svg width="22" height="16" fill="none" xmlns="http://www.w3.org/2000/svg"><path d="M10.69 13.244c-.678-2.863-2.67-5.272-5.415-6.546A10.313 10.313 0 0 0 1 5.742a9.445 9.445 0 0 0 2.175 5.625C5.06 13.646 7.912 14.98 10.933 15a9.322 9.322 0 0 0-.243-1.756Zm0 0c-.556-2.35-1.999-4.395-4.016-5.756.034-.204.075-.406.123-.608C7.37 4.458 8.885 2.36 11 1c2.115 1.36 3.63 3.458 4.203 5.88.048.202.089.404.123.608-2.017 1.361-3.46 3.406-4.016 5.756m-.62 0c.138.582.218 1.17.243 1.755l.126.001c.846 0 1.68-.103 2.484-.302l.014-.018c-.805.205-1.64.314-2.49.32m.243-1.756c.678-2.863 2.67-5.272 5.415-6.546A10.313 10.313 0 0 1 21 5.742a9.445 9.445 0 0 1-2.175 5.625C16.94 13.646 14.088 14.98 11.067 15m.243-1.756A9.322 9.322 0 0 0 11.067 15" stroke="#0266C1" stroke-linecap="round" stroke-linejoin="round"/></svg>