<svg width="34" height="44" viewBox="0 0 34 44" fill="none" xmlns="http://www.w3.org/2000/svg">
<path fill-rule="evenodd" clip-rule="evenodd" d="M16.9999 0.181641C26.0373 0.181641 33.3635 7.16338 33.3635 15.7758V16.7151C33.3635 20.161 32.2337 23.5208 30.1319 26.3249L17.0322 43.8021C17.0164 43.8233 16.9834 43.8233 16.9675 43.8021L3.86782 26.3249C1.76607 23.5209 0.63623 20.161 0.63623 16.7151V15.7758C0.63623 7.16338 7.96248 0.181641 16.9999 0.181641ZM14.0922 10.5764C12.2548 11.4137 10.9203 12.9972 10.4665 14.8786C10.0127 16.7599 10.4889 18.7345 11.7605 20.2432C13.032 21.752 14.9605 22.6307 16.9999 22.6307C19.0393 22.6307 20.9677 21.752 22.2393 20.2432C23.5108 18.7345 23.9871 16.7599 23.5333 14.8786C23.0795 12.9972 21.7449 11.4137 19.9075 10.5764C18.0701 9.73914 15.9297 9.73914 14.0922 10.5764Z" fill="#0266C1"/>
</svg>
