<svg width="20" height="20" viewBox="0 0 20 20" fill="none" xmlns="http://www.w3.org/2000/svg">
<path d="M17.6218 11.1056C17.4582 11.0646 17.2946 11.1056 17.1515 11.2082C16.6199 11.6596 16.0065 12.029 15.3317 12.2752C14.6978 12.5214 14.0026 12.6445 13.2665 12.6445C11.6103 12.6445 10.0972 11.9674 9.01345 10.8799C7.92974 9.79241 7.25498 8.27401 7.25498 6.61197C7.25498 5.91433 7.37766 5.2372 7.58213 4.62163C7.80705 3.96503 8.13421 3.36998 8.56361 2.857C8.74763 2.63129 8.70674 2.30299 8.48182 2.11832C8.33869 2.01573 8.17511 1.97469 8.01153 2.01573C6.2735 2.48766 4.7604 3.53413 3.67668 4.92942C2.63387 6.30419 2 8.00726 2 9.87449C2 12.1111 2.89968 14.1424 4.3719 15.6198C5.84411 17.0972 7.8684 18 10.0972 18C11.9783 18 13.7163 17.3434 15.1068 16.2559C16.5176 15.1479 17.54 13.5679 17.9694 11.7622C18.0716 11.4544 17.9081 11.1672 17.6218 11.1056ZM14.4933 15.3941C13.3074 16.338 11.7943 16.9125 10.1381 16.9125C8.19556 16.9125 6.43708 16.1123 5.16934 14.8401C3.90161 13.5679 3.10416 11.8033 3.10416 9.85397C3.10416 8.23297 3.63579 6.75561 4.55592 5.56551C5.18979 4.74475 5.98724 4.06762 6.90737 3.59569C6.80513 3.82139 6.7029 4.0471 6.62111 4.29333C6.35529 5.03201 6.23261 5.81173 6.23261 6.63249C6.23261 8.58179 7.03006 10.3669 8.29779 11.6391C9.56553 12.9113 11.3445 13.7115 13.287 13.7115C14.1457 13.7115 14.9636 13.5679 15.7202 13.2806C15.986 13.178 16.2518 13.0754 16.4972 12.9523C16.0065 13.8962 15.3317 14.7375 14.4933 15.3941Z" fill="white"/>
</svg>
