<svg fill="currentColor" xmlns="http://www.w3.org/2000/svg" viewBox="0 0 18 18">
  <path d="M8.47 3.42c.97 0 1.76.77 1.76 1.71s-.79 1.7-1.76 1.7-1.76-.76-1.76-1.7.79-1.71 1.76-1.71Zm0 5.84a4.2 4.2 0 0 0 4.26-4.13A4.2 4.2 0 0 0 8.47 1a4.2 4.2 0 0 0-4.25 4.13 4.2 4.2 0 0 0 4.25 4.13Zm1.72 3.37c.87-.2 1.7-.53 2.47-1 .58-.35.76-1.1.4-1.66a1.27 1.27 0 0 0-1.73-.39 5.55 5.55 0 0 1-5.73 0 1.26 1.26 0 0 0-1.71.39c-.37.56-.2 1.3.39 1.66.77.47 1.6.8 2.47 1l-2.38 2.3a1.19 1.19 0 0 0 0 1.71 1.27 1.27 0 0 0 1.76 0l2.34-2.26 2.34 2.26c.48.48 1.27.48 1.76 0 .49-.47.49-1.23 0-1.7l-2.38-2.31Z"/>
</svg>
