<svg width="22" height="22" viewBox="0 0 22 22" fill="none" xmlns="http://www.w3.org/2000/svg">
<path fill-rule="evenodd" clip-rule="evenodd" d="M11 1C15.1421 1 18.5 4.19996 18.5 8.14732V8.57782C18.5 10.1572 17.9822 11.6971 17.0189 12.9823L11.0148 20.9927C11.0076 21.0024 10.9924 21.0024 10.9852 20.9927L4.98114 12.9823C4.01784 11.6971 3.5 10.1572 3.5 8.57782V8.14732C3.5 4.19996 6.85786 1 11 1ZM9.66733 5.76428C8.82517 6.14804 8.21352 6.87379 8.00552 7.73609C7.79753 8.59839 8.01582 9.50338 8.59862 10.1949C9.18141 10.8864 10.0653 11.2892 11 11.2892C11.9347 11.2892 12.8186 10.8864 13.4014 10.1949C13.9842 9.50338 14.2025 8.59839 13.9945 7.73609C13.7865 6.87379 13.1748 6.14804 12.3327 5.76428C11.4905 5.38052 10.5095 5.38052 9.66733 5.76428Z" fill="#0266C1"/>
</svg>
