<svg width="25" height="25" viewBox="0 0 25 25" fill="none" xmlns="http://www.w3.org/2000/svg">
<g clip-path="url(#clip0_809_788)">
<rect width="25" height="25" fill="white"/>
<path d="M24.8724 18.0832L19.8518 12.4696H22.2775C22.5607 12.4689 22.7898 12.244 22.7891 11.9672C22.7889 11.857 22.7514 11.7499 22.6826 11.6626L18.6518 6.48504H20.7031C20.9863 6.48466 21.2156 6.25999 21.2153 5.98319C21.2152 5.86165 21.1698 5.7443 21.0877 5.65302L16.1543 0.169703C15.967 -0.0379264 15.6429 -0.0577872 15.4304 0.125345C15.4143 0.139191 15.3992 0.15404 15.385 0.169703L10.4465 5.648C10.2567 5.8535 10.2733 6.17046 10.4835 6.35591C10.5788 6.43993 10.7027 6.48598 10.8311 6.48504H12.9081L11.667 8.06888L8.34385 4.37491C8.15654 4.16728 7.83243 4.14742 7.61999 4.33055C7.6039 4.3444 7.58877 4.35925 7.5746 4.37491L3.35399 9.06129C3.16706 9.26923 3.18803 9.58594 3.40079 9.76863C3.49419 9.84883 3.61425 9.89312 3.73862 9.89331H5.36429L1.98986 14.2088C1.82274 14.4323 1.87255 14.7458 2.10121 14.9092C2.18659 14.9703 2.28922 15.004 2.39499 15.0057H4.29247L0.123148 19.6921C-0.0609592 19.9024 -0.0357664 20.2188 0.179495 20.3988C0.271036 20.4754 0.38732 20.518 0.507772 20.5191H6.1797V24.0276C6.1797 24.5646 6.62516 25 7.17459 25H8.73873C9.28817 25.0027 9.73593 24.5697 9.73875 24.0326C9.73875 24.0309 9.73875 24.0293 9.73875 24.0276V20.5191H13.9953V24.0276C13.9953 24.5646 14.4407 25 14.9902 25H16.5543C17.1037 25 17.5492 24.5646 17.5492 24.0276V18.9152H24.4878C24.771 18.9148 25.0003 18.6902 25 18.4134C24.9998 18.2918 24.9545 18.1745 24.8724 18.0832ZM8.71309 23.9976L7.20536 24.0276L7.17459 20.5191H8.71309V23.9976ZM13.9953 19.5167H1.636L5.83097 14.8403C6.02085 14.6349 6.00437 14.318 5.79424 14.1324C5.69629 14.046 5.56802 13.9997 5.43609 14.0033H3.43604L6.81048 9.68781C6.98324 9.46847 6.94138 9.15376 6.71695 8.98492C6.62759 8.91769 6.5181 8.8811 6.40534 8.88085H4.86685L7.94384 5.45754L11.0208 8.87083L8.85668 11.6676C8.68392 11.887 8.72578 12.2017 8.95021 12.3705C9.03957 12.4377 9.14906 12.4743 9.26182 12.4746H11.6926L6.67202 18.0882C6.48509 18.2962 6.50605 18.6129 6.71881 18.7955C6.81221 18.8757 6.93228 18.92 7.05664 18.9202H13.9953V19.5167ZM16.5235 23.9875L15.0209 24.0276L14.9902 18.9152H16.5287L16.5235 23.9875ZM16.5543 17.9128H8.18487L13.2055 12.2992C13.3924 12.0912 13.3715 11.7745 13.1587 11.5918C13.0653 11.5116 12.9452 11.4673 12.8209 11.4671H10.3029L14.3542 6.28455C14.5242 6.06314 14.4783 5.74894 14.2517 5.58285C14.1644 5.51881 14.0583 5.48367 13.9491 5.4826H11.985L15.7902 1.26236L19.5749 5.4826H17.5953C17.3121 5.48329 17.0831 5.70821 17.0837 5.98501C17.084 6.09521 17.1214 6.20222 17.1902 6.28956L21.2159 11.4671H18.7184C18.4352 11.4675 18.2059 11.6922 18.2063 11.969C18.2064 12.0905 18.2518 12.2079 18.3338 12.2992L23.3544 17.9128H16.5543Z" fill="#2D383F"/>
</g>
<defs>
<clipPath id="clip0_809_788">
<rect width="25" height="25" fill="white"/>
</clipPath>
</defs>
</svg>
