<svg fill="currentColor" xmlns="http://www.w3.org/2000/svg" viewBox="0 0 18 18">
  <path d="M10.28 1c-.48 0-.92.24-1.21.6-.29.35-.44.78-.56 1.23-.18.73-.24 1.53-.25 2.26-1.34.09-2.55.49-3.56 1.1-.4-.34-.9-.53-1.37-.53a1.8 1.8 0 0 0-1.43.72c-.73.92-.64 2.42.2 3.31-.05.28-.1.56-.1.84C2 13.55 5.07 16 8.85 16c3.77 0 6.82-2.45 6.82-5.47 0-.28-.04-.56-.09-.84.84-.89.93-2.39.2-3.3a1.8 1.8 0 0 0-1.43-.73c-.47 0-.96.2-1.37.54-1-.62-2.2-1.02-3.54-1.11.02-.67.07-1.37.2-1.9.08-.32.18-.56.29-.69.1-.13.18-.18.36-.18.39 0 .44.12.67.43.12.15.25.34.47.53.22.19.54.35.88.35V2.32c-.1 0-.11 0-.18-.07-.06-.06-.15-.2-.29-.37-.26-.35-.78-.88-1.55-.88Zm3.76.12c-.9 0-1.63.83-1.63 1.85s.73 1.85 1.63 1.85c.9 0 1.62-.83 1.62-1.85s-.72-1.85-1.62-1.85Zm0 .66c.58 0 1.05.54 1.05 1.2 0 .65-.47 1.18-1.05 1.18-.58 0-1.05-.53-1.05-1.19 0-.65.47-1.19 1.05-1.19Zm-5.2 4.34c3.2 0 5.9 2.02 5.9 4.41 0 2.4-2.7 4.42-5.9 4.42s-5.91-2.02-5.91-4.42c0-2.39 2.7-4.41 5.9-4.41Zm-5.5.6c.16 0 .33.04.5.12a5.38 5.38 0 0 0-1.36 1.72c-.22-.5-.16-1.14.1-1.48.2-.24.47-.37.76-.37Zm10.99 0c.3-.01.56.12.76.36.26.34.32.97.1 1.48a5.38 5.38 0 0 0-1.35-1.72c.16-.08.33-.13.49-.13Zm-7.8 1.64c-.58 0-1.05.53-1.05 1.19 0 .66.47 1.19 1.04 1.19.58 0 1.05-.53 1.05-1.2 0-.65-.47-1.18-1.05-1.18Zm4.62 0c-.58 0-1.05.53-1.05 1.19 0 .66.47 1.19 1.05 1.19.58 0 1.05-.53 1.05-1.2 0-.65-.47-1.18-1.05-1.18ZM5.96 12.4c.37.87 1.51 1.71 2.88 1.71 1.36 0 2.52-.84 2.89-1.7-.67.48-1.73.82-2.9.82-1.16 0-2.2-.34-2.87-.83Z"/>
</svg>
