<svg width="84" height="16" viewBox="0 0 84 16" fill="none" xmlns="http://www.w3.org/2000/svg">
<path d="M7.63441 11.6911L12.3525 14.3L11.1042 9.37971L15.2688 6.0708L9.77893 5.63889L7.63441 1L5.48992 5.63889L0 6.0708L4.16458 9.37971L2.91634 14.3L7.63441 11.6911Z" fill="white"/>
<path d="M24.6344 11.6911L29.3525 14.3L28.1042 9.37971L32.2688 6.0708L26.7789 5.63889L24.6344 1L22.4899 5.63889L17 6.0708L21.1646 9.37971L19.9163 14.3L24.6344 11.6911Z" fill="white"/>
<path d="M41.6344 11.6911L46.3525 14.3L45.1042 9.37971L49.2688 6.0708L43.7789 5.63889L41.6344 1L39.4899 5.63889L34 6.0708L38.1646 9.37971L36.9163 14.3L41.6344 11.6911Z" fill="white"/>
<path fill-rule="evenodd" clip-rule="evenodd" d="M58.6344 10.5484L61.8153 12.3073L60.976 8.99895L63.6574 6.86844L60.1169 6.58989L58.6344 3.38311L57.152 6.58989L53.6114 6.86844L56.2929 8.99895L55.4536 12.3073L58.6344 10.5484ZM53.9163 14.3L55.1646 9.37971L51 6.0708L56.4899 5.63889L58.6344 1L60.7789 5.63889L66.2688 6.0708L62.1042 9.37971L63.3525 14.3L58.6344 11.6911L53.9163 14.3Z" fill="white"/>
<path fill-rule="evenodd" clip-rule="evenodd" d="M75.6344 10.5484L78.8153 12.3073L77.976 8.99895L80.6574 6.86844L77.1169 6.58989L75.6344 3.38311L74.152 6.58989L70.6114 6.86844L73.2929 8.99895L72.4536 12.3073L75.6344 10.5484ZM70.9163 14.3L72.1646 9.37971L68 6.0708L73.4899 5.63889L75.6344 1L77.7789 5.63889L83.2688 6.0708L79.1042 9.37971L80.3525 14.3L75.6344 11.6911L70.9163 14.3Z" fill="white"/>
</svg>
