<svg width="26" height="25" viewBox="0 0 26 25" fill="none" xmlns="http://www.w3.org/2000/svg">
<g clip-path="url(#clip0_4519_716)">
<path d="M25.2588 18.0832L20.3519 12.4696H22.7226C22.9994 12.4689 23.2233 12.244 23.2227 11.9672C23.2224 11.857 23.1858 11.7499 23.1186 11.6626L19.179 6.48504H21.1839C21.4607 6.48466 21.6848 6.25999 21.6845 5.98319C21.6844 5.86165 21.64 5.7443 21.5598 5.65302L16.7381 0.169703C16.555 -0.0379264 16.2383 -0.0577872 16.0306 0.125345C16.0149 0.139191 16.0001 0.15404 15.9863 0.169703L11.1596 5.648C10.9741 5.8535 10.9903 6.17046 11.1958 6.35591C11.2889 6.43993 11.41 6.48598 11.5355 6.48504H13.5654L12.3525 8.06888L9.10457 4.37491C8.9215 4.16728 8.60473 4.14742 8.3971 4.33055C8.38138 4.3444 8.36659 4.35925 8.35275 4.37491L4.22773 9.06129C4.04504 9.26923 4.06553 9.58594 4.27347 9.76863C4.36475 9.84883 4.4821 9.89312 4.60364 9.89331H6.1925L2.89449 14.2088C2.73116 14.4323 2.77984 14.7458 3.00332 14.9092C3.08677 14.9703 3.18708 15.004 3.29046 15.0057H5.14496L1.07007 19.6921C0.890129 19.9024 0.914751 20.2188 1.12514 20.3988C1.2146 20.4754 1.32825 20.518 1.44598 20.5191H6.98944V24.0276C6.98944 24.5646 7.42481 25 7.9618 25H9.49051C10.0275 25.0027 10.4651 24.5697 10.4679 24.0326C10.4679 24.0309 10.4679 24.0293 10.4679 24.0276V20.5191H14.628V24.0276C14.628 24.5646 15.0634 25 15.6003 25H17.1291C17.666 25 18.1014 24.5646 18.1014 24.0276V18.9152H24.8829C25.1597 18.9148 25.3838 18.6902 25.3835 18.4134C25.3833 18.2918 25.339 18.1745 25.2588 18.0832ZM9.46545 23.9976L7.99187 24.0276L7.9618 20.5191H9.46545V23.9976ZM14.628 19.5167H2.54866L6.64861 14.8403C6.83418 14.6349 6.81808 14.318 6.61271 14.1324C6.51698 14.046 6.39161 13.9997 6.26267 14.0033H4.30793L7.60593 9.68781C7.77478 9.46847 7.73387 9.15376 7.51452 8.98492C7.42719 8.91769 7.32018 8.8811 7.20997 8.88085H5.70632L8.71362 5.45754L11.7209 8.87083L9.60579 11.6676C9.43694 11.887 9.47785 12.2017 9.6972 12.3705C9.78454 12.4377 9.89154 12.4743 10.0017 12.4746H12.3775L7.4706 18.0882C7.28791 18.2962 7.3084 18.6129 7.51634 18.7955C7.60762 18.8757 7.72497 18.92 7.84652 18.9202H14.628V19.5167ZM17.099 23.9875L15.6304 24.0276L15.6003 18.9152H17.104L17.099 23.9875ZM17.1291 17.9128H8.94919L13.8561 12.2992C14.0388 12.0912 14.0183 11.7745 13.8104 11.5918C13.7191 11.5116 13.6017 11.4673 13.4802 11.4671H11.0192L14.9788 6.28455C15.1449 6.06314 15.1001 5.74894 14.8787 5.58285C14.7933 5.51881 14.6896 5.48367 14.5829 5.4826H12.6632L16.3822 1.26236L20.0812 5.4826H18.1465C17.8697 5.48329 17.6459 5.70821 17.6465 5.98501C17.6467 6.09521 17.6833 6.20222 17.7506 6.28956L21.6851 11.4671H19.2442C18.9674 11.4675 18.7433 11.6922 18.7436 11.969C18.7437 12.0905 18.7881 12.2079 18.8683 12.2992L23.7752 17.9128H17.1291Z" fill="#2D383F"/>
</g>
<defs>
<clipPath id="clip0_4519_716">
<rect width="25" height="25" fill="white" transform="translate(0.666504)"/>
</clipPath>
</defs>
</svg>
