<svg width="24" height="24" id='sprite-vk' viewBox="0 0 24 24" fill="none" xmlns="http://www.w3.org/2000/svg">
<rect opacity="0.3" x="0.5" y="0.5" width="23" height="23" stroke="#2D383F"/>
<path d="M18.9258 15.2259C18.9088 15.1893 18.893 15.1589 18.8783 15.1346C18.6354 14.6964 18.1712 14.1587 17.4861 13.5211L17.4716 13.5065L17.4643 13.4993L17.457 13.492H17.4497C17.1387 13.1951 16.9418 12.9954 16.8593 12.8932C16.7084 12.6985 16.6746 12.5015 16.7571 12.3018C16.8154 12.1509 17.0342 11.8323 17.4131 11.3455C17.6125 11.0876 17.7703 10.8808 17.8869 10.725C18.7276 9.60555 19.0921 8.8902 18.9803 8.57868L18.9369 8.50588C18.9077 8.46205 18.8324 8.42196 18.711 8.38539C18.5894 8.3489 18.434 8.34287 18.2444 8.36718L16.1452 8.38171C16.1111 8.36964 16.0626 8.37076 15.9993 8.38539C15.9361 8.40002 15.9045 8.40736 15.9045 8.40736L15.868 8.42564L15.839 8.4476C15.8147 8.46213 15.788 8.48767 15.7588 8.52419C15.7297 8.56057 15.7055 8.60328 15.6861 8.65194C15.4575 9.24084 15.1977 9.78838 14.906 10.2945C14.7262 10.5963 14.5611 10.8579 14.4103 11.0793C14.2597 11.3007 14.1333 11.4639 14.0313 11.5684C13.9292 11.6731 13.837 11.7569 13.7543 11.8202C13.6716 11.8836 13.6085 11.9104 13.5649 11.9006C13.5211 11.8908 13.4798 11.8811 13.4408 11.8714C13.3728 11.8275 13.3181 11.7679 13.2769 11.6925C13.2355 11.6171 13.2076 11.5221 13.193 11.4077C13.1785 11.2933 13.17 11.1949 13.1675 11.1121C13.1652 11.0294 13.1663 10.9125 13.1712 10.7616C13.1763 10.6107 13.1785 10.5085 13.1785 10.455C13.1785 10.27 13.1821 10.0693 13.1894 9.85269C13.1967 9.63611 13.2027 9.46451 13.2076 9.33809C13.2126 9.21154 13.2149 9.07766 13.2149 8.93651C13.2149 8.79536 13.2063 8.68467 13.1894 8.60432C13.1726 8.52408 13.1469 8.4462 13.113 8.37069C13.0789 8.29526 13.0291 8.2369 12.9636 8.19548C12.898 8.15411 12.8165 8.12128 12.7194 8.09688C12.4618 8.0385 12.1338 8.00692 11.7353 8.00202C10.8315 7.9923 10.2507 8.05075 9.99317 8.1773C9.89112 8.23077 9.79878 8.30382 9.71621 8.39623C9.62872 8.50335 9.61651 8.5618 9.67968 8.57141C9.97129 8.61517 10.1777 8.71982 10.2992 8.88529L10.343 8.97297C10.3771 9.03623 10.4111 9.14823 10.4451 9.30881C10.4791 9.46939 10.501 9.64703 10.5107 9.84162C10.5349 10.197 10.5349 10.5012 10.5107 10.7542C10.4863 11.0073 10.4634 11.2044 10.4414 11.3456C10.4195 11.4867 10.3867 11.6011 10.343 11.6887C10.2992 11.7763 10.2701 11.8298 10.2555 11.8492C10.2409 11.8687 10.2288 11.8809 10.2191 11.8857C10.156 11.91 10.0903 11.9223 10.0223 11.9223C9.95418 11.9223 9.87162 11.8882 9.77445 11.82C9.6773 11.7519 9.57648 11.6582 9.47198 11.539C9.36749 11.4197 9.24964 11.253 9.11838 11.0389C8.98723 10.8247 8.85115 10.5717 8.71023 10.2797L8.59363 10.0679C8.52074 9.93165 8.42117 9.73328 8.29481 9.47295C8.16839 9.21251 8.05664 8.96059 7.95949 8.71724C7.92066 8.61504 7.86232 8.53723 7.78458 8.48368L7.7481 8.46172C7.72385 8.44228 7.68491 8.42165 7.6315 8.39966C7.57801 8.37769 7.5222 8.36194 7.46384 8.35225L5.4666 8.36678C5.26251 8.36678 5.12403 8.41308 5.05111 8.50557L5.02193 8.54932C5.00735 8.57369 5 8.61261 5 8.66618C5 8.71972 5.01458 8.78544 5.04376 8.86325C5.33532 9.54956 5.65239 10.2114 5.99496 10.849C6.33753 11.4866 6.63522 12.0002 6.88784 12.3893C7.14052 12.7787 7.39807 13.1462 7.6605 13.4917C7.92293 13.8373 8.09665 14.0587 8.18164 14.156C8.26673 14.2535 8.33357 14.3264 8.38216 14.375L8.56442 14.5502C8.68104 14.667 8.8523 14.807 9.07828 14.97C9.3043 15.1331 9.55453 15.2937 9.82908 15.452C10.1037 15.61 10.4232 15.739 10.7877 15.8387C11.1521 15.9386 11.5068 15.9787 11.8519 15.9593H12.6902C12.8602 15.9446 12.989 15.8911 13.0765 15.7987L13.1055 15.7621C13.125 15.733 13.1433 15.6879 13.1601 15.6272C13.1772 15.5663 13.1857 15.4993 13.1857 15.4264C13.1807 15.2172 13.1966 15.0286 13.2329 14.8607C13.2693 14.6929 13.3107 14.5663 13.357 14.4811C13.4033 14.3959 13.4555 14.3241 13.5136 14.2658C13.5719 14.2075 13.6134 14.1721 13.6378 14.1599C13.662 14.1477 13.6813 14.1394 13.6959 14.1344C13.8125 14.0955 13.9498 14.1332 14.1079 14.2476C14.2658 14.362 14.414 14.5032 14.5525 14.6711C14.691 14.8391 14.8575 15.0276 15.0518 15.2368C15.2463 15.4461 15.4163 15.6017 15.562 15.7041L15.7078 15.7917C15.8051 15.8501 15.9314 15.9037 16.087 15.9523C16.2422 16.001 16.3782 16.0131 16.495 15.9888L18.361 15.9597C18.5456 15.9597 18.6892 15.9291 18.7911 15.8683C18.8931 15.8075 18.9538 15.7405 18.9733 15.6676C18.9928 15.5946 18.9939 15.5118 18.977 15.4192C18.9597 15.3269 18.9427 15.2623 18.9258 15.2259Z" fill="#2D383F"/>
</svg>
