<svg fill="currentColor" xmlns="http://www.w3.org/2000/svg" viewBox="0 0 18 18">
  <path d="M17.5 13.03c-.04-.07-.33-.64-1.68-1.81-1.43-1.23-1.23-1.03.48-3.15 1.04-1.3 1.46-2.08 1.33-2.42-.13-.32-.9-.24-.9-.24l-2.54.02s-.2-.03-.33.05c-.14.08-.23.26-.23.26s-.4 1-.94 1.85c-1.14 1.79-1.6 1.88-1.78 1.77-.43-.26-.32-1.04-.32-1.6 0-1.74.28-2.46-.56-2.65a4.7 4.7 0 0 0-1.19-.1c-.91-.02-1.68 0-2.12.2-.29.13-.51.42-.38.44.17.02.56.1.76.35.26.33.25 1.07.25 1.07S7.5 9.12 7 9.37c-.35.18-.82-.18-1.83-1.8-.52-.84-.91-1.76-.91-1.76s-.08-.17-.21-.26c-.17-.12-.4-.15-.4-.15l-2.42.01s-.37.01-.5.16c-.12.13 0 .4 0 .4s1.89 4.13 4.04 6.21c1.97 1.9 4.21 1.78 4.21 1.78H10s.3-.03.46-.19c.14-.14.14-.41.14-.41s-.02-1.27.61-1.45c.62-.19 1.42 1.22 2.27 1.76.64.41 1.13.32 1.13.32l2.27-.03s1.19-.07.62-.93Z"/>
</svg>
