<svg width="32" height="32" viewBox="0 0 32 32" fill="none" xmlns="http://www.w3.org/2000/svg">
<path d="M11.7712 20.3853L14.5906 17.478L17.7977 20.3853H23.2954L14.5553 11.9751L5.88574 20.3853H11.7712Z" fill="#2D383F"/>
<path d="M19.8415 6.88736L15.6829 11.0405L18.4317 13.8093L19.8415 12.4249L27.5595 19.9699C25.7974 24.573 21.2864 27.8609 15.9648 27.8609C9.12775 27.8609 3.59471 22.4272 3.59471 15.7129C3.62996 8.99853 9.163 3.56481 16 3.56481C22.0617 3.56481 27.1366 7.89108 28.1587 13.5324L31.8943 17.4087C31.9648 16.855 32 16.2666 32 15.7129C32 11.5251 30.3436 7.57959 27.3128 4.60311C24.282 1.62666 20.2644 0 16 0C11.7005 0 7.71809 1.62666 4.68723 4.60311C1.65639 7.57959 0 11.4904 0 15.7129C0 19.9353 1.65639 23.8461 4.68723 26.8226C7.71809 29.7991 11.7357 31.4257 16 31.4257C20.2644 31.4257 24.282 29.7991 27.3128 26.8226C29.1807 24.9883 30.5198 22.8079 31.2599 20.4198C31.4009 20.0045 31.5066 19.5546 31.6123 19.1392L28.3701 15.7821L19.8415 6.88736Z" fill="#2D383F"/>
</svg>
