<svg width="142" height="42" fill="none" xmlns="http://www.w3.org/2000/svg"><path d="M15.731 27.244 19.5 23.36l4.286 3.885h7.347l-11.68-11.24-11.587 11.24h7.865Z" fill="#fff"/><path d="m26.518 9.205-5.558 5.55 3.674 3.7 1.884-1.85L36.833 26.69c-2.355 6.152-8.384 10.547-15.496 10.547-9.138 0-16.533-7.262-16.533-16.236.047-8.974 7.442-16.236 16.58-16.236 8.101 0 14.884 5.782 16.25 13.322l4.992 5.18c.094-.74.142-1.526.142-2.266 0-5.597-2.214-10.87-6.265-14.848C32.453 2.174 27.083 0 21.383 0 15.639 0 10.316 2.174 6.265 6.152 2.214 10.13 0 15.357 0 21c0 5.643 2.214 10.87 6.264 14.848C10.315 39.826 15.684 42 21.384 42c5.699 0 11.069-2.174 15.12-6.152 2.495-2.451 4.285-5.366 5.274-8.557.189-.555.33-1.157.471-1.712l-4.333-4.486L26.518 9.205ZM60.411 13.495h3.145l-1.715 8.468h5.304l-.508 2.45h-8.449l2.223-10.918ZM70.105 13.495h3.144l-2.223 10.917h-3.144l2.223-10.917ZM78.139 15.88l-.492 2.403h4.907l-.492 2.386H77.17l-.762 3.743h-3.145l2.224-10.917h8.703l-.492 2.386h-5.56ZM88.28 15.88l-.364 1.841h4.939l-.46 2.308h-4.956l-.397 1.997h5.829l-.508 2.386h-8.91l2.223-10.917h8.703l-.492 2.386h-5.606ZM98.205 15.943H94.79l.509-2.448h9.957l-.508 2.448h-3.398l-1.731 8.47h-3.145l1.731-8.47ZM110.053 24.63c-1.123 0-2.102-.202-2.938-.608-.826-.405-1.467-.972-1.922-1.7-.445-.728-.667-1.56-.667-2.495 0-1.248.291-2.371.873-3.37a6.221 6.221 0 0 1 2.462-2.339c1.059-.561 2.261-.842 3.605-.842 1.122 0 2.097.203 2.922.608.837.406 1.477.973 1.922 1.7.455.728.683 1.56.683 2.496 0 1.248-.296 2.37-.889 3.369-.583.998-1.403 1.778-2.462 2.34-1.048.56-2.245.841-3.589.841Zm.27-2.557c.698 0 1.313-.172 1.842-.515.529-.343.937-.8 1.223-1.373a4.291 4.291 0 0 0 .429-1.918c0-.738-.233-1.326-.699-1.762-.455-.447-1.096-.671-1.922-.671-.699 0-1.313.172-1.842.515a3.415 3.415 0 0 0-1.223 1.388 4.193 4.193 0 0 0-.429 1.903c0 .738.228 1.33.683 1.778.466.436 1.112.655 1.938.655ZM122.896 24.63c-.963 0-1.794-.155-2.493-.467-.699-.323-1.234-.78-1.604-1.373-.371-.593-.556-1.29-.556-2.09 0-.333.042-.717.127-1.154l1.239-6.051h3.144l-1.223 6.004a4.363 4.363 0 0 0-.095.858c0 1.144.614 1.716 1.842 1.716.667 0 1.192-.198 1.573-.593.391-.406.683-1.066.873-1.98l1.223-6.005h3.097l-1.255 6.191c-.677 3.296-2.641 4.945-5.892 4.945ZM141.416 16.973c0 .998-.27 1.86-.81 2.589-.54.717-1.297 1.242-2.271 1.575l1.89 3.275h-3.287l-1.652-2.9h-1.588l-.588 2.9h-3.144l2.223-10.917h4.749c1.419 0 2.52.306 3.303.92.784.613 1.175 1.466 1.175 2.558Zm-3.176.296c0-.447-.153-.78-.461-.998-.307-.23-.735-.344-1.286-.344h-1.652l-.667 3.198h1.874c.699 0 1.239-.161 1.62-.484.381-.322.572-.78.572-1.372ZM60.282 34.706a2.19 2.19 0 0 1-1.044-.25 1.906 1.906 0 0 1-.73-.694 1.904 1.904 0 0 1-.26-.987c0-.365.087-.694.26-.987.177-.293.42-.523.73-.69.313-.17.66-.254 1.044-.254.383 0 .727.083 1.033.25a1.874 1.874 0 0 1 .994 1.682c0 .364-.088.695-.265.992-.177.293-.42.522-.73.689-.305.166-.65.25-1.032.25Zm0-.358c.305 0 .582-.067.828-.2.247-.138.44-.326.58-.565.14-.242.21-.511.21-.808 0-.297-.07-.564-.21-.803a1.462 1.462 0 0 0-.58-.564 1.674 1.674 0 0 0-.828-.206c-.306 0-.584.068-.834.206a1.5 1.5 0 0 0-.586.564c-.14.239-.21.506-.21.803 0 .297.07.566.21.808.144.239.339.427.585.565.251.133.529.2.835.2ZM64.688 31.799c.272 0 .519.061.74.184.22.12.394.29.52.51a1.5 1.5 0 0 1 .187.754c0 .286-.063.539-.188.76a1.33 1.33 0 0 1-.52.515c-.217.12-.463.179-.74.179-.235 0-.449-.047-.64-.141a1.228 1.228 0 0 1-.464-.423v1.59h-.392V31.82h.375v.564c.118-.188.273-.332.464-.434.195-.1.415-.151.658-.151Zm-.028 2.56c.203 0 .387-.045.552-.136a.986.986 0 0 0 .387-.396c.096-.17.144-.363.144-.58 0-.217-.048-.409-.144-.575a.985.985 0 0 0-.387-.396 1.1 1.1 0 0 0-.552-.141c-.206 0-.392.047-.558.14-.162.095-.29.227-.387.397a1.168 1.168 0 0 0-.138.575c0 .217.046.41.138.58.096.17.225.302.387.397.166.09.352.135.558.135ZM69.032 32.162H67.37v2.512h-.392V31.82h2.055v.342ZM70.6 31.799c.379 0 .67.093.872.282.203.184.304.459.304.824v1.769H71.4v-.445a.89.89 0 0 1-.392.347c-.17.083-.372.125-.608.125-.324 0-.582-.076-.773-.228a.73.73 0 0 1-.287-.602c0-.242.088-.438.265-.586.18-.148.466-.222.856-.222h.923v-.174c0-.246-.07-.432-.21-.559-.14-.13-.345-.195-.614-.195-.184 0-.36.03-.53.092-.17.058-.315.14-.436.244l-.177-.287a1.54 1.54 0 0 1 .53-.282 2.05 2.05 0 0 1 .652-.104Zm-.139 2.598c.221 0 .41-.049.57-.146a.91.91 0 0 0 .353-.434v-.467h-.912c-.497 0-.746.17-.746.51a.47.47 0 0 0 .194.396c.129.094.31.141.541.141ZM72.82 31.82h.392v1.264h1.829V31.82h.392v2.854h-.392v-1.259h-1.829v1.259h-.392V31.82ZM76.548 31.82h.392v2.268l1.939-2.268h.348v2.854h-.392v-2.268L76.9 34.674h-.353V31.82ZM81.706 33.187a.921.921 0 0 1 .475.244.58.58 0 0 1 .17.424.644.644 0 0 1-.176.444c-.114.13-.27.232-.47.304a2.002 2.002 0 0 1-.657.103c-.21 0-.416-.029-.618-.087a1.652 1.652 0 0 1-.53-.265l.132-.288c.132.098.287.174.464.228.177.054.355.081.536.081.269 0 .488-.048.657-.146.173-.101.26-.237.26-.407a.39.39 0 0 0-.21-.353c-.14-.086-.332-.13-.575-.13h-.497v-.282h.475c.217 0 .392-.04.525-.12.132-.082.199-.193.199-.33 0-.152-.076-.271-.227-.358-.147-.087-.34-.13-.58-.13-.313 0-.622.077-.928.233l-.11-.298a2.336 2.336 0 0 1 1.077-.266c.22 0 .42.032.597.097.18.062.32.15.42.266.103.116.154.25.154.402a.552.552 0 0 1-.155.385.885.885 0 0 1-.408.25ZM84.242 31.799c.38 0 .67.093.873.282.202.184.304.459.304.824v1.769h-.376v-.445a.89.89 0 0 1-.392.347c-.17.083-.372.125-.608.125-.324 0-.582-.076-.773-.228a.73.73 0 0 1-.287-.602c0-.242.088-.438.265-.586.18-.148.466-.222.856-.222h.922v-.174c0-.246-.07-.432-.21-.559-.14-.13-.344-.195-.613-.195-.184 0-.36.03-.53.092-.17.058-.315.14-.436.244l-.177-.287a1.54 1.54 0 0 1 .53-.282 2.05 2.05 0 0 1 .652-.104Zm-.138 2.598c.221 0 .41-.049.569-.146a.91.91 0 0 0 .353-.434v-.467h-.911c-.497 0-.746.17-.746.51a.47.47 0 0 0 .194.396c.129.094.309.141.541.141ZM89.49 34.337v1.053h-.37v-.716h-2.657V31.82h.392v2.517h1.773V31.82h.392v2.517h.47ZM90.239 31.82h.392v2.268l1.94-2.268h.347v2.854h-.392v-2.268l-1.933 2.268h-.354V31.82ZM96.274 31.82v2.854h-.36v-.944h-1.021l-.674.944h-.425l.723-.998a.983.983 0 0 1-.519-.315.861.861 0 0 1-.182-.564c0-.319.11-.56.331-.727.221-.167.523-.25.906-.25h1.22Zm-2.06.988c0 .423.274.634.823.634h.878v-1.28h-.85c-.568 0-.852.215-.852.646ZM101.445 31.82v2.854h-.392v-2.512H99.23v2.512h-.392V31.82h2.607ZM103.759 34.7c-.28 0-.532-.06-.757-.184a1.402 1.402 0 0 1-.53-.52 1.455 1.455 0 0 1-.193-.749c0-.279.064-.528.193-.749.129-.22.306-.392.53-.515.225-.123.477-.184.757-.184s.532.061.757.184c.224.123.399.295.525.515.128.22.193.47.193.749 0 .278-.065.528-.193.749-.126.22-.301.394-.525.52a1.551 1.551 0 0 1-.757.185Zm0-.34c.206 0 .39-.046.552-.136a.984.984 0 0 0 .387-.397 1.2 1.2 0 0 0 .138-.58 1.2 1.2 0 0 0-.138-.58.948.948 0 0 0-.387-.391 1.08 1.08 0 0 0-.552-.141c-.206 0-.392.047-.558.14a.998.998 0 0 0-.387.392 1.2 1.2 0 0 0-.138.58c0 .217.046.41.138.58.096.17.225.302.387.397.166.09.352.135.558.135ZM107.787 34.674l-.922-1.194-.929 1.194h-.441l1.149-1.465-1.094-1.389h.442l.873 1.118.872-1.118h.431l-1.094 1.389 1.16 1.465h-.447ZM109.974 34.7c-.28 0-.533-.06-.757-.184a1.398 1.398 0 0 1-.531-.52 1.465 1.465 0 0 1-.193-.749c0-.279.065-.528.193-.749.129-.22.306-.392.531-.515.224-.123.477-.184.757-.184.279 0 .532.061.756.184.225.123.4.295.525.515.129.22.193.47.193.749 0 .278-.064.528-.193.749-.125.22-.3.394-.525.52a1.547 1.547 0 0 1-.756.185Zm0-.34c.206 0 .39-.046.552-.136a.984.984 0 0 0 .387-.397 1.2 1.2 0 0 0 .138-.58 1.2 1.2 0 0 0-.138-.58.948.948 0 0 0-.387-.391 1.08 1.08 0 0 0-.552-.141c-.207 0-.393.047-.558.14a.998.998 0 0 0-.387.392 1.2 1.2 0 0 0-.138.58c0 .217.046.41.138.58.096.17.225.302.387.397.165.09.351.135.558.135ZM115.104 34.337v1.026h-.37v-.69h-2.602v.69h-.37v-1.026h.166c.195-.01.328-.152.398-.423s.118-.65.143-1.139l.039-.955h2.143v2.517h.453Zm-2.276-1.54c-.018.405-.053.74-.105 1.003-.051.26-.143.44-.276.537h1.812v-2.175h-1.397l-.034.635ZM117.067 34.7c-.279 0-.532-.06-.756-.184a1.398 1.398 0 0 1-.531-.52 1.455 1.455 0 0 1-.193-.749c0-.279.064-.528.193-.749.129-.22.306-.392.531-.515.224-.123.477-.184.756-.184.28 0 .533.061.757.184.225.123.4.295.525.515.129.22.193.47.193.749 0 .278-.064.528-.193.749-.125.22-.3.394-.525.52a1.548 1.548 0 0 1-.757.185Zm0-.34c.207 0 .391-.046.553-.136a.982.982 0 0 0 .386-.397c.093-.17.139-.363.139-.58 0-.217-.046-.41-.139-.58a.946.946 0 0 0-.386-.391 1.08 1.08 0 0 0-.553-.141c-.206 0-.392.047-.558.14a.996.996 0 0 0-.386.392 1.2 1.2 0 0 0-.138.58c0 .217.046.41.138.58.096.17.224.302.386.397.166.09.352.135.558.135ZM121.231 33.198c.394.09.591.324.591.7 0 .25-.094.441-.282.575-.187.134-.467.2-.839.2h-1.32V31.82h1.281c.332 0 .591.064.779.19a.615.615 0 0 1 .282.543c0 .155-.044.289-.133.401a.76.76 0 0 1-.359.244Zm-1.469-.108h.873c.224 0 .395-.042.513-.125a.412.412 0 0 0 .183-.364.399.399 0 0 0-.183-.358c-.118-.08-.289-.119-.513-.119h-.873v.966Zm.922 1.28c.251 0 .438-.04.564-.12.125-.079.188-.204.188-.374s-.058-.294-.172-.374c-.114-.083-.294-.125-.541-.125h-.961v.993h.922ZM126.038 33.198c.394.09.591.324.591.7 0 .25-.094.441-.282.575-.188.134-.468.2-.84.2h-1.32V31.82h1.282c.331 0 .591.064.779.19a.617.617 0 0 1 .281.543.63.63 0 0 1-.132.401.765.765 0 0 1-.359.244Zm-1.47-.108h.873c.225 0 .396-.042.514-.125a.414.414 0 0 0 .182-.364.4.4 0 0 0-.182-.358c-.118-.08-.289-.119-.514-.119h-.873v.966Zm.923 1.28c.25 0 .438-.04.563-.12.125-.079.188-.204.188-.374s-.057-.294-.171-.374c-.114-.083-.295-.125-.542-.125h-.961v.993h.923ZM131.049 32.162h-1.663v2.512h-.392V31.82h2.055v.342ZM132.679 34.7c-.28 0-.532-.06-.756-.184a1.398 1.398 0 0 1-.531-.52 1.455 1.455 0 0 1-.193-.749c0-.279.064-.528.193-.749.129-.22.306-.392.531-.515.224-.123.476-.184.756-.184s.532.061.757.184c.225.123.4.295.525.515.129.22.193.47.193.749 0 .278-.064.528-.193.749-.125.22-.3.394-.525.52a1.551 1.551 0 0 1-.757.185Zm0-.34c.207 0 .391-.046.553-.136a.988.988 0 0 0 .386-.397 1.2 1.2 0 0 0 .139-.58 1.2 1.2 0 0 0-.139-.58.952.952 0 0 0-.386-.391 1.08 1.08 0 0 0-.553-.141c-.206 0-.392.047-.558.14a.99.99 0 0 0-.386.392 1.2 1.2 0 0 0-.138.58c0 .217.046.41.138.58.095.17.224.302.386.397.166.09.352.135.558.135ZM136.49 31.799c.272 0 .519.061.74.184.221.12.394.29.519.51.125.22.188.472.188.754 0 .286-.063.539-.188.76-.125.22-.298.392-.519.515-.218.12-.464.179-.74.179-.236 0-.45-.047-.641-.141a1.223 1.223 0 0 1-.464-.423v1.59h-.393V31.82h.376v.564a1.21 1.21 0 0 1 .464-.434c.195-.1.414-.151.658-.151Zm-.028 2.56c.202 0 .387-.045.552-.136a.984.984 0 0 0 .387-.396 1.16 1.16 0 0 0 .144-.58 1.13 1.13 0 0 0-.144-.575.984.984 0 0 0-.387-.396 1.098 1.098 0 0 0-.552-.141c-.206 0-.392.047-.558.14a1.037 1.037 0 0 0-.387.397 1.169 1.169 0 0 0-.138.575c0 .217.046.41.138.58.096.17.225.302.387.397.166.09.352.135.558.135ZM140 32.83c.365.003.643.082.834.238.192.156.288.38.288.673 0 .303-.103.537-.31.7-.206.162-.501.242-.884.238l-1.149-.005V31.82h.393v.998l.828.011Zm1.608-1.01H142v2.854h-.392V31.82Zm-1.702 2.566c.269.004.472-.049.608-.157.14-.112.21-.275.21-.488 0-.21-.068-.366-.204-.467-.137-.101-.341-.154-.614-.157l-.734-.011v1.27l.734.01Z" fill="#fff"/></svg>