<svg width="48" height="48" fill="none" xmlns="http://www.w3.org/2000/svg"><path fill-rule="evenodd" clip-rule="evenodd" d="M24 2.182c9.038 0 16.364 6.982 16.364 15.594v.94c0 3.445-1.13 6.805-3.232 9.61l-13.1 17.476a.041.041 0 0 1-.064 0l-13.1-17.477c-2.101-2.804-3.231-6.164-3.231-9.61v-.939C7.637 9.164 14.963 2.182 24 2.182Zm-2.907 10.395c-1.838.837-3.172 2.42-3.626 4.302-.454 1.881.022 3.856 1.294 5.364 1.271 1.51 3.2 2.388 5.24 2.388 2.039 0 3.967-.879 5.239-2.387 1.271-1.51 1.748-3.484 1.294-5.365-.454-1.882-1.789-3.465-3.626-4.302a7.045 7.045 0 0 0-5.815 0Z" fill="#0266C1"/></svg>