<svg width="25" height="25" viewBox="0 0 25 25" fill="none" xmlns="http://www.w3.org/2000/svg">
<g clip-path="url(#clip0_11199_381)">
<path d="M24.1704 22.2803V6.70123C24.1823 6.44571 23.9848 6.22897 23.7293 6.2171C23.6748 6.21456 23.6204 6.22168 23.5684 6.23812V6.26127L21.4844 6.91426C21.7026 6.33016 21.8321 5.71665 21.8688 5.09423C21.8688 2.28077 19.588 0 16.7745 0C13.9611 0 11.6803 2.28077 11.6803 5.09423C11.7128 5.68754 11.833 6.27279 12.0369 6.8309L8.59135 5.59902C8.55135 5.5941 8.51094 5.5941 8.47094 5.59902H8.43389C8.37837 5.60001 8.32344 5.61101 8.2718 5.63144L1.12598 8.41011C0.961171 8.47281 0.846262 8.62361 0.82959 8.79913V24.3967C0.830342 24.6525 1.03828 24.8592 1.29409 24.8585C1.35065 24.8583 1.40669 24.8478 1.45942 24.8274L8.44315 22.1229L16.4087 24.9756C16.5048 25.0081 16.6089 25.0081 16.7051 24.9756L23.8463 22.7434C24.0469 22.6806 24.18 22.4904 24.1704 22.2803ZM16.7745 0.926224C19.0765 0.926224 20.9425 2.79228 20.9425 5.09423C20.9425 6.905 18.2241 11.9066 16.7745 14.3565C15.325 11.8881 12.6065 6.88184 12.6065 5.09423C12.6065 2.79228 14.4726 0.926224 16.7745 0.926224ZM23.2581 21.9608L17.0246 23.9105V20.3769C17.0246 20.1212 16.8173 19.9138 16.5615 19.9138C16.3058 19.9138 16.0984 20.1212 16.0984 20.3769V23.8781L8.90163 21.3032V18.3392C8.90163 18.0835 8.69427 17.8761 8.43852 17.8761C8.18277 17.8761 7.97541 18.0835 7.97541 18.3392V21.3032L1.75581 23.7252V16.5655L4.04359 15.6393C4.2884 15.5652 4.42675 15.3067 4.35266 15.0618C4.27856 14.817 4.02003 14.6787 3.77521 14.7528C3.74963 14.7605 3.72473 14.7705 3.70083 14.7825L1.75576 15.5652V9.11868L7.97535 6.71049V8.09983C7.97535 8.35558 8.18271 8.56294 8.43846 8.56294C8.69421 8.56294 8.90157 8.35558 8.90157 8.09983V6.69197L12.4536 7.96553C13.5928 10.5687 14.9032 13.0936 16.3762 15.5235C16.5088 15.7422 16.7936 15.8119 17.0123 15.6793C17.076 15.6407 17.1295 15.5872 17.1681 15.5235C18.6339 13.1079 19.9396 10.5985 21.0768 8.01184L23.2442 7.33106L23.258 14.9215L20.9101 15.4911C20.6543 15.5218 20.4718 15.754 20.5025 16.0098C20.5332 16.2655 20.7655 16.448 21.0212 16.4173C21.0581 16.4218 21.0954 16.4218 21.1324 16.4173L23.258 15.8986L23.2581 21.9608Z" fill="#2D383F"/>
<path d="M16.756 2.40353C15.2699 2.40353 14.0653 3.6082 14.0653 5.09421C14.0653 6.58022 15.2699 7.78489 16.756 7.78489C18.2409 7.78235 19.4441 6.57918 19.4466 5.09421C19.4466 3.6082 18.242 2.40353 16.756 2.40353ZM16.756 6.85867C15.7898 6.84605 15.0125 6.0605 15.01 5.09421H14.9915C14.9915 4.11971 15.7815 3.32976 16.756 3.32976C17.7305 3.32976 18.5204 4.11971 18.5204 5.09421C18.5204 6.06872 17.7305 6.85867 16.756 6.85867Z" fill="#2D383F"/>
<path d="M10.6985 13.9674V13.9813L8.45704 13.0134C8.34294 12.9659 8.21454 12.9659 8.10044 13.0134L6.20631 13.7776C5.96845 13.8735 5.85336 14.1441 5.94929 14.3819C6.04521 14.6198 6.31578 14.7349 6.55365 14.639L8.26716 13.9489L10.328 14.8196C10.3865 14.8445 10.4496 14.8571 10.5133 14.8566C10.769 14.8587 10.978 14.6531 10.9801 14.3973C10.9816 14.2103 10.8705 14.0407 10.6985 13.9674Z" fill="#2D383F"/>
<path d="M18.2702 16.616C18.2012 16.3929 17.9769 16.2561 17.747 16.2969L17.7516 16.2598L16.6031 16.5377L14.658 15.6948C14.4227 15.5925 14.149 15.7003 14.0467 15.9356C13.9444 16.171 14.0522 16.4447 14.2875 16.5469L16.3715 17.4732C16.4301 17.4981 16.4932 17.5107 16.5568 17.5102H16.6679L17.9646 17.1953C18.209 17.1197 18.3458 16.8604 18.2702 16.616Z" fill="#2D383F"/>
</g>
<defs>
<clipPath id="clip0_11199_381">
<rect width="25" height="25" fill="white"/>
</clipPath>
</defs>
</svg>
