<svg width="32" height="30" viewBox="0 0 32 30" fill="none" xmlns="http://www.w3.org/2000/svg">
<path d="M0.582031 0.5H31.418V29.5H0.582031V0.5Z" stroke="#2D383F" stroke-opacity="0.3"/>
<path d="M15.4697 9.42035C16.4416 9.42035 17.2321 10.1874 17.2321 11.1305C17.2321 12.0708 16.4416 12.8378 15.4697 12.8378C14.4978 12.8378 13.7074 12.0708 13.7074 11.1305C13.7074 10.1874 14.4978 9.42035 15.4697 9.42035ZM15.4697 15.2582C17.8175 15.2582 19.7263 13.406 19.7263 11.1305C19.7263 8.85219 17.8175 7 15.4697 7C13.1219 7 11.2161 8.85219 11.2161 11.1305C11.2161 13.406 13.1219 15.2582 15.4697 15.2582ZM17.1911 18.6273C18.0576 18.4342 18.8919 18.1018 19.6618 17.6331C20.2444 17.278 20.4201 16.5308 20.0541 15.9655C19.6853 15.3974 18.9183 15.2269 18.3328 15.5848C16.5909 16.6473 14.3485 16.6473 12.6037 15.5848C12.0212 15.2269 11.2513 15.3974 10.8853 15.9655C10.5194 16.5308 10.695 17.278 11.2776 17.6331C12.0475 18.1018 12.8819 18.4342 13.7484 18.6273L11.3684 20.934C10.8824 21.4056 10.8824 22.1726 11.3684 22.6442C11.6143 22.88 11.9304 22.9993 12.2495 22.9993C12.5686 22.9993 12.8877 22.88 13.1336 22.6442L15.4697 20.3772L17.8088 22.6442C18.2947 23.1186 19.0822 23.1186 19.5711 22.6442C20.0571 22.1726 20.0571 21.4056 19.5711 20.934L17.1911 18.6273Z" fill="#2D383F"/>
</svg>
