<svg width="33" height="30" viewBox="0 0 33 30" fill="none" xmlns="http://www.w3.org/2000/svg">
<path d="M1.41797 0.5H32.2539V29.5H1.41797V0.5Z" stroke="#2D383F" stroke-opacity="0.3"/>
<path d="M18.2807 7C17.8042 7 17.3572 7.24401 17.0704 7.59589C16.7837 7.94777 16.6256 8.37671 16.5105 8.82877C16.3276 9.55565 16.2711 10.3622 16.2576 11.089C14.9187 11.1789 13.7062 11.5796 12.6992 12.1986C12.2905 11.8519 11.7983 11.6592 11.3264 11.6644C10.789 11.6695 10.2787 11.9033 9.89941 12.3836C9.17464 13.3005 9.25818 14.8005 10.0981 15.6918C10.0462 15.9666 10.0078 16.2491 10.0078 16.5342C10.0078 19.5548 13.065 22 16.8356 22C20.6063 22 23.6634 19.5522 23.6634 16.5342C23.6634 16.2491 23.625 15.9666 23.5731 15.6918C24.413 14.8005 24.4966 13.3005 23.7718 12.3836C23.3925 11.9033 22.8822 11.6695 22.3448 11.6644C21.8729 11.6592 21.3807 11.8519 20.972 12.1986C19.9695 11.5822 18.7638 11.1815 17.4317 11.089C17.4498 10.4187 17.4972 9.7226 17.6304 9.19863C17.7139 8.86986 17.8133 8.63099 17.9194 8.5C18.0255 8.36901 18.1023 8.31507 18.2807 8.31507C18.6667 8.31507 18.7164 8.44092 18.949 8.74658C19.0664 8.90068 19.2019 9.09332 19.4186 9.28082C19.6354 9.46832 19.956 9.63014 20.3037 9.63014V8.31507C20.2066 8.31507 20.1886 8.3125 20.1231 8.25342C20.0576 8.19435 19.9673 8.05822 19.8341 7.88356C19.5676 7.53168 19.0506 7 18.2807 7ZM22.0378 7.12329C21.1391 7.12329 20.4121 7.95034 20.4121 8.9726C20.4121 9.99486 21.1391 10.8219 22.0378 10.8219C22.9364 10.8219 23.6634 9.99486 23.6634 8.9726C23.6634 7.95034 22.9364 7.12329 22.0378 7.12329ZM22.0378 7.78082C22.6158 7.78082 23.0854 8.31507 23.0854 8.9726C23.0854 9.63014 22.6158 10.1644 22.0378 10.1644C21.4597 10.1644 20.9901 9.63014 20.9901 8.9726C20.9901 8.31507 21.4597 7.78082 22.0378 7.78082ZM16.8356 12.1164C20.035 12.1164 22.7422 14.143 22.7422 16.5342C22.7422 18.9281 20.035 20.9521 16.8356 20.9521C13.6362 20.9521 10.929 18.9281 10.929 16.5342C10.929 14.143 13.6362 12.1164 16.8356 12.1164ZM11.3445 12.7123C11.5048 12.7149 11.6718 12.756 11.8322 12.8356C11.2519 13.3365 10.7913 13.9118 10.4774 14.5616C10.2607 14.0531 10.3194 13.4187 10.5858 13.0822C10.78 12.8356 11.0487 12.7098 11.3445 12.7123ZM22.3268 12.7123C22.6226 12.7098 22.8912 12.8356 23.0854 13.0822C23.3518 13.4187 23.4106 14.0531 23.1938 14.5616C22.8799 13.9118 22.4193 13.3365 21.8391 12.8356C21.9994 12.756 22.1665 12.7149 22.3268 12.7123ZM14.5235 14.3562C13.9455 14.3562 13.4759 14.8904 13.4759 15.5479C13.4759 16.2055 13.9455 16.7397 14.5235 16.7397C15.1016 16.7397 15.5712 16.2055 15.5712 15.5479C15.5712 14.8904 15.1016 14.3562 14.5235 14.3562ZM19.1477 14.3562C18.5697 14.3562 18.1 14.8904 18.1 15.5479C18.1 16.2055 18.5697 16.7397 19.1477 16.7397C19.7257 16.7397 20.1953 16.2055 20.1953 15.5479C20.1953 14.8904 19.7257 14.3562 19.1477 14.3562ZM13.9636 18.4041C14.3316 19.2697 15.4696 20.1096 16.8356 20.1096C18.2016 20.1096 19.3577 19.2697 19.7257 18.4041C19.0574 18.8947 18.0029 19.226 16.8356 19.226C15.6683 19.226 14.6319 18.8947 13.9636 18.4041Z" fill="#2D383F"/>
</svg>
