<svg width="33" height="30" id="sprite-vk-footer" viewBox="0 0 33 30" fill="none" xmlns="http://www.w3.org/2000/svg">
<path d="M0.746094 0.5H31.582V29.5H0.746094V0.5Z" stroke="#2D383F" stroke-opacity="0.3"/>
<path d="M24.5026 19.0274C24.457 18.9564 24.1747 18.3866 22.8163 17.2153C21.3942 15.9888 21.5852 16.188 23.2981 14.0673C24.3413 12.7757 24.7584 11.987 24.6279 11.6498C24.5037 11.3284 23.7364 11.4132 23.7364 11.4132L21.1851 11.427C21.1851 11.427 20.9962 11.4033 20.855 11.4812C20.7181 11.5581 20.63 11.7356 20.63 11.7356C20.63 11.7356 20.2257 12.7353 19.6866 13.5852C18.5499 15.3785 18.0946 15.4732 17.9089 15.3618C17.477 15.1025 17.5852 14.3187 17.5852 13.7626C17.5852 12.0245 17.8686 11.2998 17.0323 11.1125C16.7543 11.0504 16.5505 11.009 15.8405 11.0021C14.9299 10.9932 14.1584 11.005 13.7222 11.2032C13.4314 11.3353 13.2075 11.6301 13.3444 11.6468C13.5131 11.6676 13.8952 11.7425 14.0979 11.9988C14.36 12.3291 14.3505 13.0725 14.3505 13.0725C14.3505 13.0725 14.5012 15.1183 13.9992 15.3726C13.6543 15.5471 13.182 15.1912 12.1685 13.5635C11.6495 12.7304 11.2568 11.8085 11.2568 11.8085C11.2568 11.8085 11.1815 11.637 11.0467 11.5453C10.8833 11.4339 10.654 11.3984 10.654 11.3984L8.22797 11.4122C8.22797 11.4122 7.86395 11.4221 7.73023 11.569C7.61137 11.7001 7.72068 11.9702 7.72068 11.9702C7.72068 11.9702 9.62036 16.0983 11.7705 18.1795C13.7434 20.0873 15.9827 19.9621 15.9827 19.9621H16.9973C16.9973 19.9621 17.304 19.9305 17.46 19.7738C17.6043 19.6298 17.599 19.3597 17.599 19.3597C17.599 19.3597 17.5789 18.0948 18.2114 17.9084C18.8344 17.725 19.6346 19.131 20.4825 19.6722C21.1235 20.0814 21.6107 19.9917 21.6107 19.9917L23.8786 19.9621C23.8786 19.9621 25.0651 19.8941 24.5026 19.0274Z" fill="#2D383F"/>
</svg>
